<svg aria-hidden="true" style="position: absolute; width: 0; height: 0; overflow: hidden;" version="1.1" xmlns="http://www.w3.org/2000/svg" xmlns:xlink="http://www.w3.org/1999/xlink">
<defs>
<symbol id="icon-facebook" viewBox="0 0 32 32">
<path  d="M21.328 5.312h2.923v-5.088c-1.232-0.143-2.66-0.224-4.108-0.224-0.052 0-0.104 0-0.156 0l0.008-0c-4.213 0-7.099 2.65-7.099 7.52v4.48h-4.646v5.688h4.646v14.312h5.699v-14.31h4.459l0.707-5.688h-5.168v-3.922c0-1.643 0.443-2.768 2.734-2.768z"></path>
</symbol>
<symbol id="icon-instagram" viewBox="0 0 32 32">
<path  d="M31.968 9.408c-0.074-1.701-0.349-2.869-0.742-3.882-0.424-1.111-1.054-2.059-1.85-2.837l-0.001-0.001c-0.78-0.792-1.724-1.419-2.778-1.827l-0.054-0.018c-1.019-0.394-2.181-0.667-3.882-0.742-1.712-0.082-2.256-0.101-6.602-0.101-4.344 0-4.888 0.019-6.595 0.094-1.699 0.074-2.869 0.349-3.88 0.742-1.112 0.424-2.060 1.054-2.839 1.85l-0.001 0.001c-0.791 0.78-1.418 1.724-1.825 2.778l-0.018 0.054c-0.395 1.019-0.669 2.181-0.744 3.882-0.082 1.712-0.101 2.256-0.101 6.602 0 4.344 0.019 4.888 0.094 6.595 0.075 1.701 0.35 2.869 0.744 3.882 0.426 1.11 1.055 2.057 1.849 2.837l0.001 0.001c0.8 0.813 1.77 1.443 2.832 1.843 1.019 0.395 2.182 0.67 3.882 0.744 1.707 0.075 2.251 0.094 6.595 0.094 4.346 0 4.89-0.019 6.595-0.094 1.701-0.074 2.869-0.349 3.882-0.742 2.157-0.85 3.833-2.526 4.664-4.628l0.019-0.055c0.394-1.019 0.669-2.182 0.744-3.882 0.075-1.707 0.093-2.251 0.093-6.595s-0.006-4.888-0.080-6.595zM29.088 22.474c-0.070 1.563-0.333 2.406-0.55 2.97-0.552 1.399-1.64 2.486-3.004 3.024l-0.036 0.012c-0.56 0.219-1.411 0.482-2.968 0.55-1.688 0.075-2.194 0.094-6.464 0.094-4.269 0-4.782-0.019-6.464-0.094-1.563-0.069-2.406-0.331-2.97-0.55-0.721-0.269-1.334-0.676-1.836-1.192l-0.001-0.001c-0.517-0.503-0.924-1.117-1.184-1.803l-0.011-0.034c-0.218-0.563-0.48-1.413-0.549-2.97-0.075-1.688-0.094-2.195-0.094-6.464 0-4.27 0.019-4.784 0.094-6.464 0.069-1.563 0.331-2.406 0.549-2.97 0.269-0.722 0.678-1.337 1.198-1.837l0.002-0.002c0.504-0.517 1.119-0.923 1.806-1.182l0.034-0.011c0.56-0.219 1.411-0.48 2.968-0.55 1.688-0.074 2.195-0.093 6.464-0.093 4.275 0 4.782 0.019 6.464 0.093 1.563 0.069 2.406 0.331 2.97 0.55 0.693 0.256 1.325 0.662 1.837 1.194 0.531 0.52 0.938 1.144 1.195 1.84 0.218 0.56 0.48 1.411 0.549 2.968 0.075 1.688 0.094 2.194 0.094 6.464 0 4.269-0.019 4.768-0.094 6.458z"></path>
<path  d="M16.059 7.782c-4.539 0.002-8.218 3.682-8.219 8.221v0c0.091 4.471 3.737 8.060 8.221 8.060s8.13-3.589 8.221-8.052l0-0.009c-0.001-4.54-3.681-8.22-8.221-8.221h-0zM16.059 21.334c-2.945-0-5.332-2.388-5.332-5.333s2.388-5.333 5.333-5.333c0 0 0.001 0 0.001 0h-0c2.946 0 5.334 2.388 5.334 5.334s-2.388 5.334-5.334 5.334v0zM26.525 7.458c0 1.060-0.86 1.92-1.92 1.92s-1.92-0.86-1.92-1.92v0c0-1.060 0.86-1.92 1.92-1.92s1.92 0.86 1.92 1.92v0z"></path>
</symbol>
<symbol id="icon-linkedin" viewBox="0 0 32 32">
<path  d="M31.992 32h0.008v-11.738c0-5.741-1.237-10.163-7.947-10.163-3.227 0-5.392 1.77-6.277 3.45h-0.093v-2.914h-6.365v21.363h6.627v-10.578c0-2.786 0.528-5.48 3.978-5.48 3.398 0 3.448 3.179 3.448 5.658v10.402h6.621zM0.528 10.635h6.635v21.365h-6.635v-21.365zM3.843 0c-2.123 0-3.843 1.721-3.843 3.843v0c0 2.12 1.722 3.878 3.843 3.878 2.12 0 3.842-1.757 3.842-3.878s-1.72-3.841-3.841-3.843h-0z"></path>
</symbol>
<symbol id="icon-twitter" viewBox="0 0 32 32">
<path  d="M32 6.078c-1.1 0.493-2.376 0.857-3.713 1.028l-0.068 0.007c1.36-0.817 2.382-2.078 2.873-3.579l0.013-0.046c-1.197 0.722-2.591 1.273-4.076 1.573l-0.084 0.014c-1.2-1.279-2.9-2.076-4.787-2.076-3.622 0-6.558 2.936-6.558 6.558 0 0.001 0 0.003 0 0.004v-0c0 0.52 0.043 1.021 0.152 1.496-5.454-0.266-10.28-2.88-13.522-6.861-0.564 0.949-0.899 2.092-0.902 3.313v0.001c0 2.272 1.171 4.286 2.914 5.451-1.091-0.030-2.107-0.325-2.994-0.823l0.033 0.017v0.072c0.003 3.165 2.236 5.807 5.213 6.44l0.043 0.008c-0.499 0.136-1.071 0.215-1.662 0.215-0.020 0-0.041-0-0.061-0l0.003 0c-0.419 0-0.843-0.024-1.242-0.112 0.85 2.598 3.261 4.509 6.13 4.57-2.215 1.746-5.045 2.8-8.122 2.8-0.004 0-0.008 0-0.013 0h0.001c-0.018 0-0.040 0-0.062 0-0.531 0-1.055-0.034-1.569-0.099l0.061 0.006c2.826 1.846 6.287 2.944 10.004 2.944 0.021 0 0.042-0 0.063-0h-0.003c12.072 0 18.672-10 18.672-18.669 0-0.288-0.010-0.57-0.024-0.848 1.299-0.936 2.39-2.064 3.258-3.355l0.030-0.047z"></path>
</symbol>
<symbol id="icon-antenna" viewBox="0 0 32 32">
<path fill="#212121" style="fill: var(--color2, #212121)" d="M30.773 22.098l-8.443-8.505 0.937-4.616c0.225 0.090 0.485 0.144 0.758 0.146h0.007c0.008 0 0.017 0 0.026 0 1.192 0 2.159-0.967 2.159-2.159s-0.967-2.159-2.159-2.159c-1.192 0-2.159 0.967-2.159 2.159 0 0.259 0.046 0.508 0.13 0.739l-0.005-0.015-4.96 0.606-8.091-8.133c-0.096-0.098-0.229-0.159-0.376-0.16h-0c-0.14 0.001-0.274 0.057-0.373 0.155l-1.512 1.504c-0.096 0.097-0.156 0.23-0.156 0.377s0.060 0.281 0.156 0.377v0l0.814 0.825c-1.143 2.062-1.816 4.522-1.816 7.139 0 4.106 1.656 7.824 4.336 10.525l-0.001-0.001c0.043 0.041 0.092 0.074 0.146 0.097-0.032 0.164-0.051 0.353-0.052 0.546v6.188h-6.4c-1.472 0.001-2.666 1.194-2.667 2.666v1.067c0 0.295 0.239 0.534 0.534 0.534h24.534c0.294 0 0.533-0.239 0.533-0.534v-1.067c-0.002-1.472-1.195-2.665-2.666-2.666h-6.4v-2.742c1.003 0.21 2.024 0.317 3.049 0.32 2.58-0.003 5.005-0.663 7.117-1.822l-0.077 0.039 0.818 0.823c0.099 0.101 0.235 0.159 0.376 0.16 0.14-0.001 0.274-0.057 0.373-0.155l1.512-1.504c0.096-0.097 0.156-0.23 0.156-0.377s-0.060-0.281-0.156-0.377v0zM23.28 6.233c0.193-0.192 0.459-0.31 0.752-0.31 0.589 0 1.067 0.478 1.067 1.066s-0.477 1.066-1.067 1.066c-0 0-0 0-0 0h-0.004c-0.587-0.003-1.061-0.479-1.061-1.066 0-0.295 0.12-0.563 0.314-0.756l0-0h-0.002zM22.024 9.737l-0.598 2.946-1.175-1.183 1.774-1.763zM21.419 8.835l-1.92 1.909-1.486-1.493 3.406-0.416zM24.004 28.8c0.884 0 1.6 0.716 1.6 1.6v0 0.534h-23.466v-0.534c0-0.884 0.716-1.6 1.6-1.6v0h20.267zM16.538 26.666v1.067h-5.334v-1.067h5.334zM11.204 25.6v-4.053c0-1.294 1.196-2.346 2.667-2.346s2.667 1.053 2.667 2.346v4.053h-5.334zM17.604 23.904v-2.357c0-1.882-1.675-3.413-3.733-3.413-0.017-0-0.038-0-0.058-0-1.353 0-2.54 0.707-3.213 1.771l-0.009 0.016c-2.36-2.482-3.812-5.846-3.812-9.55 0-2.314 0.567-4.496 1.569-6.414l-0.036 0.077 18.602 18.709c-1.823 0.947-3.979 1.502-6.266 1.502-1.079 0-2.128-0.124-3.136-0.357l0.093 0.018zM28.893 23.22l-21.057-21.181 0.754-0.752 7.935 7.98c0.004 0 0.006 0.007 0.010 0.010l13.114 13.191-0.757 0.752z"></path>
<path fill="#2196f3" style="fill: var(--color3, #2196f3)" d="M13.876 20.267h-0.005c-0.001 0-0.002 0-0.002 0-0.884 0-1.6 0.716-1.6 1.6s0.715 1.599 1.597 1.6h0.005c0.001 0 0.001 0 0.002 0 0.884 0 1.6-0.716 1.6-1.6s-0.715-1.599-1.598-1.6h-0zM14.249 22.245c-0.096 0.096-0.229 0.155-0.376 0.155-0.295 0-0.534-0.239-0.534-0.534s0.238-0.533 0.532-0.533h0c0.293 0.001 0.531 0.239 0.531 0.533 0 0.148-0.060 0.282-0.157 0.378l-0 0h0.005z"></path>
</symbol>
<symbol id="icon-astronaut" viewBox="0 0 32 32">
<path fill="#2196f3" style="fill: var(--color3, #2196f3)" d="M31.974 4.524c-0.064-0.191-0.227-0.332-0.427-0.362l-0.003-0-1.911-0.278-0.855-1.731c-0.179-0.365-0.777-0.365-0.956 0l-0.855 1.731-1.911 0.278c-0.26 0.039-0.457 0.26-0.457 0.528 0 0.15 0.062 0.285 0.161 0.382l1.383 1.348-0.326 1.903c-0.034 0.2 0.048 0.402 0.212 0.522 0.166 0.12 0.383 0.135 0.562 0.040l1.709-0.899 1.709 0.899c0.072 0.038 0.157 0.061 0.247 0.061 0.295 0 0.534-0.239 0.534-0.534 0-0.031-0.003-0.062-0.008-0.092l0 0.003-0.326-1.903 1.383-1.348c0.099-0.097 0.161-0.233 0.161-0.382 0-0.059-0.009-0.115-0.027-0.168l0.001 0.004zM29.511 5.851c-0.126 0.122-0.183 0.299-0.153 0.472l0.191 1.114-1-0.526c-0.072-0.039-0.158-0.062-0.249-0.062s-0.177 0.023-0.252 0.063l0.003-0.001-1 0.526 0.191-1.114c0.005-0.027 0.008-0.059 0.008-0.091 0-0.149-0.061-0.285-0.16-0.381l-0-0-0.811-0.79 1.119-0.162c0.174-0.025 0.324-0.134 0.402-0.292l0.5-1.013 0.5 1.013c0.078 0.158 0.228 0.267 0.402 0.292l1.119 0.162-0.809 0.79zM26.134 20.522h-1.067v1.067h1.067v-1.067zM26.134 22.656h-1.067v1.066h1.067v-1.066zM27.2 21.589h-1.067v1.067h1.067v-1.067zM25.067 21.589h-1.067v1.067h1.067v-1.067zM22.4 26.389h-1.067v1.067h1.067v-1.067zM22.4 28.523h-1.067v1.067h1.067v-1.067zM23.467 27.456h-1.067v1.067h1.067v-1.067zM21.334 27.456h-1.067v1.067h1.067v-1.067zM16 24.256h-1.066v1.067h1.066v-1.067zM16 26.389h-1.066v1.067h1.066v-1.067zM17.067 25.322h-1.067v1.067h1.067v-1.067zM14.934 25.322h-1.067v1.067h1.067v-1.067zM5.867 6.122h-1.066v1.066h1.066v-1.066zM5.867 8.256h-1.066v1.066h1.066v-1.066zM6.933 7.189h-1.067v1.067h1.066v-1.067zM4.8 7.189h-1.067v1.067h1.067v-1.067z"></path>
<path fill="#212121" style="fill: var(--color2, #212121)" d="M24.715 14.16c-0.28-0.376-0.698-0.636-1.179-0.703l-0.009-0.001c-0.076-0.012-0.164-0.018-0.254-0.018-0.411 0-0.789 0.139-1.090 0.373l0.004-0.003-1.253 0.96-1.898 1.417-1.358-0.541c2.421-1.086 4.113-3.508 4.113-6.32 0-3.823-3.122-6.934-6.961-6.934s-6.961 3.11-6.961 6.934c0 1.386 0.415 2.674 1.12 3.759l-2.768-0.024c-0.009 0-0.016 0.005-0.023 0.005-0.057 0.003-0.11 0.014-0.159 0.033l0.004-0.001c-0.013 0.005-0.026 0.007-0.038 0.013-0.006 0.003-0.013 0.003-0.019 0.006l-3.233 1.596c-0 0-0.001 0-0.001 0.001l-1.893 0.91c-0.024 0.011-0.045 0.023-0.065 0.036l0.001-0.001c-0.482 0.324-0.795 0.867-0.795 1.483 0 0.297 0.073 0.577 0.201 0.823l-0.005-0.010c0.22 0.424 0.592 0.742 1.043 0.885l0.013 0.003c0.161 0.053 0.345 0.083 0.537 0.083 0.308 0 0.598-0.078 0.851-0.216l-0.009 0.005 1.388-0.738 2.264-1.169 1.357-0.008-5.442 5.415c0 0.001-0.001 0.001-0.001 0.001l-1.339 1.333c-0.303 0.299-0.491 0.714-0.491 1.173 0 0.002 0 0.003 0 0.005v-0c0.002 0.919 0.748 1.664 1.667 1.664 0.001 0 0.002 0 0.002 0h-0c0.428 0 0.854-0.162 1.18-0.485l1.314-1.309 1.741-1.3 0.901 0.897-3.102 3.088c-0.303 0.299-0.491 0.714-0.491 1.173 0 0.001 0 0.003 0 0.004v-0c0 0.445 0.174 0.864 0.49 1.179 0.302 0.3 0.717 0.485 1.176 0.485 0.001 0 0.002 0 0.003 0h-0c0.427 0 0.855-0.162 1.18-0.485l4.488-4.472c0.007-0.006 0.016-0.009 0.022-0.016l5.166-5.658 3.471 0.494c0.025 0.004 0.050 0.006 0.075 0.006 0.064 0 0.127-0.016 0.187-0.038 0.017-0.006 0.032-0.015 0.049-0.023 0.019-0.010 0.039-0.015 0.058-0.027l3.213-2.133c0.012-0.008 0.018-0.021 0.029-0.030 0.013-0.010 0.029-0.014 0.041-0.026l1.271-1.191c0.348-0.326 0.564-0.787 0.564-1.3 0-0.4-0.132-0.769-0.355-1.066l0.003 0.005zM2.13 17.77c-0.098 0.054-0.215 0.086-0.34 0.086-0.078 0-0.153-0.013-0.224-0.036l0.005 0.001c-0.294-0.093-0.504-0.364-0.504-0.683 0-0.235 0.114-0.444 0.289-0.575l0.002-0.001 1.314-0.632 0.316 0.924 0.133 0.389-0.992 0.527zM5.627 15.942l-1.548 0.8-0.255-0.746-0.184-0.537 2.027-1.001-0.040 1.484zM20.727 9.322c0 0.918-0.219 1.785-0.599 2.56l-4.181-1.899c-0.044-0.575-0.342-1.072-0.782-1.384l-0.006-0.004 1.464-4.861c2.377 0.757 4.104 2.975 4.104 5.588zM8.938 9.322c0-3.235 2.644-5.867 5.894-5.867 0.253 0 0.5 0.022 0.745 0.053l-1.432 4.753c-0.019 0-0.037-0.006-0.057-0.006-0 0-0.001 0-0.001 0-1.032 0-1.869 0.835-1.872 1.867v0c0.003 1.031 0.84 1.867 1.872 1.867 0 0 0 0 0.001 0h-0c0.695 0 1.295-0.383 1.618-0.944l3.863 1.755c-1.075 1.447-2.795 2.39-4.737 2.39-3.25 0-5.894-2.632-5.894-5.867zM14.895 10.122c0 0.441-0.362 0.8-0.806 0.8-0 0-0.001 0-0.001 0-0.443 0-0.802-0.358-0.804-0.8v-0c0-0.441 0.361-0.8 0.806-0.8s0.806 0.359 0.806 0.8zM2.464 25.146c-0.11 0.109-0.261 0.176-0.428 0.176s-0.317-0.067-0.427-0.175l0 0c-0.109-0.108-0.176-0.257-0.176-0.422s0.067-0.314 0.176-0.422l0-0 0.962-0.959 0.852 0.848-0.959 0.954zM5.678 28.88c-0.11 0.109-0.261 0.176-0.428 0.176s-0.317-0.067-0.427-0.175l0 0c-0.109-0.108-0.176-0.257-0.176-0.422s0.067-0.314 0.176-0.422l0-0 0.963-0.959 0.852 0.848-0.96 0.955zM9.16 25.411l-0.001 0.001-1.765 1.76-0.852-0.848 1.765-1.757c0.040-0.040 0.065-0.088 0.090-0.136 0.007-0.014 0.020-0.026 0.026-0.040 0.016-0.041 0.019-0.085 0.026-0.128 0.003-0.025 0.014-0.048 0.014-0.073 0-0.035-0.013-0.070-0.020-0.105-0.006-0.032-0.006-0.064-0.019-0.096-0.025-0.053-0.055-0.098-0.092-0.138l0 0c-0.010-0.012-0.014-0.026-0.025-0.038h-0.001s0-0.001-0.001-0.002l-1.607-1.6c-0.017-0.017-0.039-0.024-0.058-0.038-0.025-0.021-0.054-0.040-0.084-0.056l-0.003-0.001c-0.026-0.012-0.058-0.023-0.090-0.031l-0.003-0.001c-0.030-0.009-0.065-0.017-0.101-0.020l-0.002-0c-0.007-0-0.015-0-0.023-0-0.026 0-0.051 0.002-0.075 0.005l0.003-0c-0.036 0.005-0.069 0.009-0.104 0.021s-0.064 0.027-0.094 0.045c-0.020 0.011-0.043 0.015-0.061 0.029l-1.774 1.324-0.901-0.897 2.399-2.386 4.36 4.289-0.928 0.919zM15.979 18.394c-0.016-0.002-0.030 0.004-0.046 0.003-0.008-0-0.017-0.001-0.027-0.001-0.031 0-0.062 0.003-0.092 0.008l0.003-0c-0.070 0.011-0.132 0.035-0.187 0.070l0.002-0.001c-0.030 0.018-0.057 0.037-0.083 0.061-0.013 0.011-0.028 0.016-0.040 0.029l-4.698 5.146-4.328-4.256 2.833-2.818c0.096-0.097 0.156-0.23 0.156-0.377 0-0.295-0.239-0.534-0.534-0.534-0.001 0-0.001 0-0.002 0h0l-2.219 0.013 0.028-1.607 3.104 0.027c1.264 1.297 3.027 2.101 4.978 2.101 0.001 0 0.002 0 0.003 0h-0c0.438 0 0.864-0.046 1.28-0.122 0.040 0.032 0.080 0.064 0.129 0.085l2.41 0.96 0.152 0.758 0.178 0.886-3.003-0.427zM20.020 18.572l-0.313-1.558 1.446-1.080 0.946 1.257-2.080 1.381zM23.773 15.741l-0.837 0.785-0.931-1.236 0.831-0.637c0.155-0.119 0.351-0.168 0.543-0.143 0.193 0.027 0.364 0.128 0.48 0.284 0.088 0.117 0.141 0.265 0.141 0.426 0 0.206-0.087 0.391-0.226 0.521l-0 0z"></path>
<path fill="#212121" style="fill: var(--color2, #212121)" d="M13.602 18.544l-2.143-2.134c-0.096-0.096-0.229-0.155-0.376-0.155s-0.28 0.059-0.376 0.155l-2.143 2.133c-0.097 0.097-0.156 0.23-0.156 0.378s0.060 0.281 0.156 0.378l-0-0 2.142 2.134c0.096 0.096 0.229 0.156 0.376 0.156s0.28-0.059 0.376-0.156v0l2.143-2.134c0.097-0.097 0.157-0.23 0.157-0.378s-0.060-0.281-0.157-0.378l-0-0zM11.083 20.303l-1.387-1.381 1.386-1.381 1.387 1.381-1.387 1.381zM17.164 5.071l-0.258 1.036c0.071 0.018 1.738 0.452 1.738 2.149h1.067c0-2.017-1.666-2.965-2.547-3.184zM19.711 9.322h-1.067v1.066h1.067v-1.066z"></path>
</symbol>
<symbol id="icon-clock" viewBox="0 0 32 32">
<path fill="#212121" style="fill: var(--color2, #212121)" d="M31.296 15.301c-0.001-8.452-6.855-15.303-15.308-15.301s-15.303 6.855-15.301 15.308c0.002 6.788 4.422 12.543 10.541 14.545l0.108 0.031c0.061 0.019 0.123 0.029 0.187 0.029 0.12 0 0.238-0.032 0.342-0.094 0.135-0.080 0.236-0.207 0.283-0.357l3.865-12.25c1.054-0.004 1.906-0.859 1.906-1.913 0-1.056-0.856-1.913-1.913-1.913-0.303 0-0.59 0.071-0.845 0.196l0.011-0.005-5.106-5.107c-0.114-0.11-0.271-0.179-0.443-0.179-0.352 0-0.638 0.286-0.638 0.638 0 0.172 0.068 0.328 0.179 0.443l-0-0 5.103 5.109c-0.121 0.241-0.191 0.525-0.191 0.826 0 0.602 0.283 1.137 0.723 1.48l0.004 0.003-3.682 11.673c-7.278-2.681-11.004-10.754-8.324-18.032s10.754-11.004 18.032-8.323c7.278 2.681 11.004 10.754 8.323 18.032-1.345 3.581-4.003 6.406-7.374 7.938l-0.088 0.036-0.398-1.874c-0.063-0.291-0.318-0.506-0.624-0.506-0.164 0-0.313 0.062-0.426 0.163l0.001-0.001-3.837 3.426c-0.132 0.117-0.214 0.287-0.214 0.477 0 0.283 0.185 0.524 0.441 0.606l0.005 0.001 4.899 1.563c0.058 0.020 0.126 0.031 0.196 0.031 0.352 0 0.637-0.285 0.637-0.637 0-0.047-0.005-0.093-0.015-0.138l0.001 0.004-0.391-1.839c5.528-2.374 9.329-7.772 9.329-14.057 0-0.011 0-0.023-0-0.034v0.002zM15.992 14.664c0.352 0 0.638 0.286 0.638 0.638s-0.285 0.638-0.638 0.638v0c-0.352 0-0.638-0.286-0.638-0.638s0.286-0.638 0.638-0.638v0zM18.092 29.528l2.184-1.948 0.603 2.84-2.787-0.892z"></path>
<path fill="#2196f3" style="fill: var(--color3, #2196f3)" d="M15.354 3.185v1.275c0 0.352 0.286 0.638 0.638 0.638s0.638-0.285 0.638-0.638v0-1.275c0-0.352-0.285-0.638-0.638-0.638s-0.638 0.285-0.638 0.638v0zM3.876 14.664c-0.352 0-0.638 0.286-0.638 0.638s0.285 0.638 0.638 0.638h1.275c0.352 0 0.638-0.286 0.638-0.638s-0.285-0.638-0.638-0.638h-1.275zM28.108 15.939c0.352 0 0.638-0.286 0.638-0.638s-0.285-0.638-0.638-0.638h-1.275c-0.352 0-0.638 0.286-0.638 0.638s0.285 0.638 0.638 0.638h1.275z"></path>
</symbol>
<symbol id="icon-diagram" viewBox="0 0 32 32">
<path fill="#2196f3" style="fill: var(--color3, #2196f3)" d="M14.926 14.965h1.066v4.798h-1.066v-4.798zM19.19 17.097h1.066v2.665h-1.066v-2.665zM10.661 18.696h1.066v1.066h-1.066v-1.066zM7.463 18.163h1.066v1.599h-1.066v-1.599z"></path>
<path fill="#212121" style="fill: var(--color2, #212121)" d="M1.599 28.291h25.586c0 0 0 0 0 0 0.883 0 1.599-0.716 1.599-1.599v0-2.132c0-0.883-0.716-1.599-1.599-1.599v0h-0.533v-13.294l3.028-2.868c0.207 0.104 0.452 0.166 0.711 0.166 0.888 0 1.608-0.72 1.608-1.608s-0.72-1.608-1.608-1.608c-0.888 0-1.608 0.72-1.608 1.608 0 0.247 0.056 0.481 0.155 0.69l-0.004-0.010-2.281 2.162v-1.23c0-0.883-0.716-1.599-1.599-1.599v0h-21.323c-0.883 0-1.599 0.716-1.599 1.599v0 15.992h-0.533c-0.883 0-1.599 0.716-1.599 1.599v0 2.132c0 0.883 0.716 1.599 1.599 1.599v0zM30.384 4.837c0.294 0 0.533 0.239 0.533 0.533s-0.239 0.533-0.533 0.533v0c-0.294 0-0.533-0.239-0.533-0.533s0.239-0.533 0.533-0.533v0zM3.198 6.969c0-0.294 0.239-0.533 0.533-0.533h21.323c0.294 0 0.533 0.239 0.533 0.533v2.239l-1.066 1.013v-2.185c0-0.295-0.239-0.534-0.534-0.534h-19.189c-0.294 0-0.534 0.239-0.534 0.533v13.327c0 0.294 0.239 0.533 0.534 0.533h19.189c0.295 0 0.534-0.239 0.534-0.533v-9.675l1.066-1.010v12.283h-22.389v-15.991zM7.996 13.899c-0.001 0-0.003 0-0.005 0-0.883 0-1.599 0.716-1.599 1.599s0.716 1.599 1.599 1.599c0.432 0 0.824-0.172 1.112-0.45l-0 0 1.853 0.93c0.215 0.107 0.476 0.057 0.636-0.122l3.939-4.432 3.872 2.902c0.208 0.155 0.498 0.139 0.686-0.039l3.365-3.188v8.131h-18.123v-12.261h18.123v2.661l-3.771 3.572-3.904-2.927c-0.088-0.067-0.2-0.107-0.32-0.107-0.158 0-0.3 0.069-0.398 0.178l-0 0.001-3.993 4.493-1.493-0.746c0.011-0.064 0.017-0.128 0.020-0.193 0-0.883-0.716-1.599-1.599-1.599v0zM8.529 15.498c0 0.294-0.239 0.533-0.533 0.533s-0.533-0.239-0.533-0.533v0c0-0.294 0.239-0.533 0.533-0.533s0.533 0.239 0.533 0.533v0zM11.727 24.026h5.33v0.533c0 0.294-0.238 0.533-0.533 0.533h-4.265c-0.294 0-0.533-0.239-0.533-0.533v0-0.533zM1.067 24.56c0-0.294 0.238-0.533 0.533-0.533h9.062v0.533c0 0.883 0.716 1.599 1.599 1.599v0h4.265c0.883 0 1.599-0.716 1.599-1.599v0-0.533h9.062c0.294 0 0.533 0.239 0.533 0.533v2.132c0 0.294-0.239 0.533-0.533 0.533h-25.586c-0 0-0 0-0 0-0.294 0-0.533-0.239-0.533-0.533 0 0 0 0 0 0v0-2.132z"></path>
</symbol>
<symbol id="icon-logo1" viewBox="0 0 56 32">
<path  d="M19.934 4.105l3.676 3.48-6.824-0.004v16.886h17.836v-6.456l3.672 3.476v-17.382h-18.361zM34.461 17.602l-10.424-9.868h10.424v9.868zM31.225 21.997h-11.616v-11.356h0.821v10.587h10.795v0.769zM22.353 26.715l-0.429 0.884-0.429-0.884h-0.36l0.626 1.178v0.687h0.325v-0.687l0.625-1.178h-0.358zM22.892 28.58l0.151-0.434h0.722l0.152 0.434h0.338l-0.706-1.865h-0.291l-0.704 1.865h0.337zM23.404 27.111l0.27 0.773h-0.54l0.27-0.773zM25.113 27.839c-0.044 0.066-0.070 0.147-0.070 0.234 0 0.001 0 0.002 0 0.003v-0c0 0.157 0.055 0.285 0.165 0.383s0.259 0.146 0.443 0.146c0.185 0 0.344-0.050 0.477-0.15l0.105 0.124h0.361l-0.274-0.324c0.108-0.147 0.161-0.335 0.161-0.565h-0.27c0 0.126-0.026 0.24-0.078 0.342l-0.36-0.425 0.127-0.092c0.090-0.065 0.154-0.13 0.194-0.195 0.037-0.061 0.059-0.134 0.059-0.212 0-0.001 0-0.002 0-0.003v0c0-0.002 0-0.005 0-0.007 0-0.115-0.050-0.218-0.13-0.288l-0-0c-0.083-0.075-0.193-0.121-0.315-0.121-0.006 0-0.013 0-0.019 0l0.001-0c-0.15 0-0.27 0.043-0.358 0.129-0.089 0.084-0.133 0.199-0.133 0.346 0 0.060 0.014 0.122 0.042 0.186 0.029 0.064 0.080 0.142 0.152 0.233-0.138 0.099-0.231 0.185-0.277 0.257zM25.954 28.252c-0.080 0.065-0.182 0.104-0.294 0.105h-0c-0.005 0-0.010 0-0.015 0-0.080 0-0.153-0.031-0.208-0.081l0 0c-0.052-0.051-0.084-0.121-0.084-0.199 0-0.004 0-0.007 0-0.011l-0 0.001c0-0.1 0.051-0.189 0.154-0.267l0.040-0.028 0.407 0.481zM25.62 27.426c-0.088-0.109-0.132-0.198-0.132-0.27 0-0.062 0.018-0.114 0.054-0.155 0.034-0.038 0.083-0.062 0.137-0.062 0.003 0 0.005 0 0.008 0h-0c0.002-0 0.004-0 0.007-0 0.051 0 0.098 0.020 0.133 0.053l-0-0c0.037 0.035 0.055 0.076 0.055 0.124 0 0.002 0 0.004 0 0.007 0 0.069-0.031 0.132-0.079 0.174l-0 0-0.040 0.031-0.142 0.098zM28.655 28.439c0.128-0.112 0.201-0.268 0.22-0.466h-0.323c-0.017 0.133-0.058 0.228-0.122 0.285s-0.16 0.086-0.287 0.086c-0.139 0-0.245-0.053-0.317-0.159s-0.108-0.26-0.108-0.461v-0.165c0.002-0.199 0.040-0.349 0.115-0.452 0.076-0.103 0.185-0.155 0.325-0.155 0.121 0 0.213 0.030 0.275 0.089s0.102 0.156 0.118 0.29h0.323c-0.021-0.205-0.093-0.362-0.219-0.474s-0.291-0.168-0.497-0.168c-0.153 0-0.287 0.037-0.404 0.109-0.117 0.075-0.209 0.18-0.266 0.305l-0.002 0.004c-0.059 0.13-0.094 0.283-0.094 0.443 0 0.008 0 0.015 0 0.023l-0-0.001v0.174c0.003 0.172 0.035 0.322 0.096 0.452s0.149 0.23 0.261 0.301c0.114 0.070 0.245 0.105 0.393 0.105 0.212 0 0.383-0.055 0.511-0.166zM30.559 28.177c0.063-0.138 0.095-0.299 0.095-0.482v-0.104c0-0.006 0-0.013 0-0.020 0-0.166-0.036-0.323-0.1-0.465l0.003 0.007c-0.059-0.132-0.153-0.239-0.27-0.313l-0.003-0.002c-0.117-0.073-0.252-0.11-0.404-0.11s-0.286 0.037-0.404 0.111c-0.117 0.073-0.208 0.179-0.273 0.319-0.061 0.135-0.096 0.293-0.096 0.459 0 0.008 0 0.016 0 0.024l-0-0.001v0.105c0.001 0.178 0.033 0.336 0.097 0.472 0.065 0.137 0.156 0.242 0.274 0.317 0.119 0.073 0.253 0.11 0.404 0.11 0.153 0 0.288-0.037 0.405-0.11 0.117-0.075 0.208-0.18 0.271-0.318zM30.213 27.123c0.079 0.11 0.117 0.269 0.117 0.475v0.097c0 0.21-0.039 0.37-0.116 0.479-0.077 0.11-0.187 0.164-0.331 0.164-0.004 0-0.009 0-0.013 0-0.132 0-0.248-0.066-0.318-0.167l-0.001-0.001c-0.080-0.112-0.119-0.27-0.119-0.475v-0.108c0.002-0.2 0.042-0.356 0.12-0.465 0.070-0.101 0.185-0.166 0.315-0.166 0.005 0 0.010 0 0.014 0l-0.001-0c0.144 0 0.254 0.055 0.332 0.165z"></path>
</symbol>
<symbol id="icon-logo2" viewBox="0 0 53 32">
<path  d="M25.057 3.38h-0.069c-0.105-0.006-0.21-0.009-0.315-0.011h-0.227c-0.198 0-0.401 0.005-0.602 0.015-0.007-0.001-0.015-0.001-0.023-0.001s-0.016 0-0.024 0.001l0.001-0c-1.931 0.112-3.723 0.595-5.343 1.378l0.084-0.037-0.216 0.104v11.071l0.506-0.172c0.444-0.152 0.917-0.29 1.407-0.417 1.209-0.323 2.601-0.518 4.036-0.537l0.012-0v1.455c-0.191 0.001-0.377 0.007-0.562 0.016l0.030-0.001h-0.042c-1.137 0.064-2.201 0.234-3.227 0.503l0.113-0.025c-1.409 0.358-2.644 0.854-3.791 1.487l0.081-0.041v-14.198c1.121-0.666 2.417-1.209 3.79-1.561l0.103-0.022c1.099-0.296 2.362-0.468 3.665-0.473h0.217c0.256 0.006 0.505 0.018 0.739 0.036 0.616 0.044 1.228 0.141 1.828 0.291v1.432c-0.51-0.125-1.115-0.22-1.734-0.265l-0.037-0.002-0.037-0.003c-0.123-0.010-0.247-0.021-0.362-0.021zM27.576 4.843c0.317 0.024 0.646 0.036 0.979 0.036 1.373-0.005 2.701-0.186 3.966-0.52l-0.11 0.025c1.409-0.359 2.643-0.855 3.79-1.488l-0.082 0.041v13.945c-1.121 0.666-2.417 1.208-3.79 1.561l-0.103 0.023c-1.099 0.295-2.363 0.466-3.665 0.472h-0.003c-0.026 0-0.057 0-0.088 0-0.957 0-1.885-0.12-2.772-0.346l0.078 0.017v-14.034c0.215 0.050 0.436 0.095 0.662 0.133 0.369 0.063 0.759 0.108 1.139 0.136zM34.673 4.952l-0.506 0.17c-0.306 0.112-0.775 0.256-1.251 0.385l-0.156 0.036c-1.26 0.337-2.707 0.534-4.2 0.539h-0.003c-0.33 0-0.634-0.009-0.927-0.028l-0.404-0.027v11.389l0.346 0.030c0.321 0.029 0.652 0.043 0.986 0.043 1.178-0.005 2.318-0.161 3.404-0.45l-0.094 0.021c0.992-0.252 1.853-0.57 2.67-0.966l-0.083 0.036 0.216-0.104v-11.074z"></path>
<path  d="M17.869 23.019c-0.136-0.141-0.326-0.228-0.537-0.228-0.009 0-0.018 0-0.028 0l0.001-0c-0.003-0-0.007-0-0.011-0-0.113 0-0.221 0.022-0.319 0.063l0.006-0.002c-0.192 0.077-0.341 0.228-0.414 0.416l-0.002 0.005c-0.040 0.1-0.059 0.206-0.058 0.314v1.897c-0.005 0.134 0.021 0.267 0.075 0.389 0.045 0.098 0.11 0.184 0.19 0.255 0.076 0.064 0.165 0.11 0.26 0.135 0.093 0.026 0.188 0.039 0.284 0.039 0.105 0.001 0.21-0.021 0.306-0.066 0.285-0.127 0.48-0.407 0.48-0.732v-0.212h-0.497v0.169c0 0.003 0 0.007 0 0.012 0 0.057-0.011 0.111-0.030 0.16l0.001-0.003c-0.017 0.042-0.041 0.078-0.072 0.107l-0 0c-0.057 0.044-0.129 0.071-0.207 0.073h-0c-0.009 0.001-0.019 0.002-0.029 0.002-0.083 0-0.157-0.041-0.203-0.103l-0-0.001c-0.042-0.067-0.066-0.148-0.066-0.235 0-0.007 0-0.013 0-0.020l-0 0.001v-1.769c-0.003-0.098 0.018-0.195 0.061-0.284 0.046-0.070 0.124-0.116 0.213-0.116 0.010 0 0.021 0.001 0.031 0.002l-0.001-0c0.003-0 0.006-0 0.010-0 0.087 0 0.163 0.042 0.211 0.106l0 0.001c0.051 0.067 0.082 0.152 0.082 0.244 0 0.004-0 0.007-0 0.011v-0.001 0.164h0.491v-0.194c0-0.002 0-0.005 0-0.008 0-0.116-0.022-0.228-0.063-0.33l0.002 0.006c-0.039-0.104-0.095-0.193-0.166-0.267l0 0zM20.814 22.997c-0.151-0.128-0.348-0.207-0.564-0.209h-0c-0.101 0-0.201 0.018-0.296 0.053-0.205 0.074-0.366 0.224-0.452 0.416l-0.002 0.005c-0.050 0.116-0.075 0.241-0.073 0.367v1.82c-0.003 0.128 0.021 0.255 0.073 0.372 0.045 0.098 0.11 0.185 0.192 0.255 0.076 0.070 0.165 0.125 0.262 0.16 0.088 0.033 0.189 0.053 0.296 0.053 0.217 0 0.415-0.081 0.565-0.213l-0.001 0.001c0.079-0.072 0.142-0.158 0.187-0.255 0.051-0.117 0.076-0.244 0.073-0.372v-1.82c0-0.005 0-0.010 0-0.016 0-0.127-0.027-0.248-0.075-0.357l0.002 0.006c-0.046-0.104-0.109-0.192-0.187-0.266l-0-0zM20.583 25.45c0.001 0.008 0.001 0.018 0.001 0.028 0 0.092-0.038 0.176-0.1 0.235l-0 0c-0.063 0.053-0.144 0.085-0.233 0.085s-0.171-0.032-0.234-0.085l0.001 0c-0.062-0.059-0.1-0.142-0.1-0.234 0-0.010 0-0.020 0.001-0.030l-0 0.001v-1.82c-0.001-0.008-0.001-0.018-0.001-0.028 0-0.092 0.038-0.175 0.1-0.235l0-0c0.063-0.053 0.144-0.085 0.233-0.085s0.171 0.032 0.234 0.085l-0.001-0c0.062 0.059 0.1 0.143 0.1 0.235 0 0.010-0 0.020-0.001 0.030l0-0.001v1.82zM24.683 26.263v-3.445h-0.477l-0.627 1.823h-0.009l-0.631-1.823h-0.471v3.445h0.492v-2.096h0.009l0.482 1.481h0.245l0.485-1.481h0.009v2.095h0.492zM27.479 23.060c-0.076-0.085-0.172-0.15-0.278-0.189-0.1-0.034-0.216-0.053-0.336-0.053-0.007 0-0.015 0-0.022 0l0.001-0h-0.731v3.444h0.491v-1.345h0.253c0.154 0.007 0.305-0.025 0.443-0.094 0.113-0.063 0.204-0.153 0.268-0.26l0.002-0.003c0.054-0.086 0.093-0.187 0.112-0.295l0.001-0.005c0.019-0.13 0.028-0.26 0.026-0.392 0.005-0.165-0.012-0.331-0.048-0.492-0.035-0.124-0.098-0.231-0.181-0.317l0 0zM27.226 24.11c-0.002 0.066-0.019 0.127-0.047 0.182l0.001-0.002c-0.028 0.053-0.072 0.094-0.125 0.12l-0.002 0.001c-0.061 0.028-0.132 0.044-0.206 0.044-0.009 0-0.018-0-0.026-0.001l0.001 0h-0.224v-1.171h0.253c0.007-0 0.015-0.001 0.024-0.001 0.072 0 0.14 0.016 0.201 0.045l-0.003-0.001c0.051 0.030 0.090 0.073 0.114 0.126l0.001 0.002c0.027 0.060 0.041 0.125 0.043 0.192v0.229c0 0.080 0.005 0.163 0 0.236h-0.005zM29.804 22.819h-0.402l-0.759 3.445h0.491l0.144-0.74h0.669l0.144 0.74h0.491l-0.777-3.445zM29.351 25.053l0.241-1.248h0.009l0.24 1.248h-0.491zM32.975 24.893h-0.009l-0.741-2.075h-0.472v3.445h0.49v-2.072h0.010l0.75 2.071h0.462v-3.444h-0.49v2.075zM35.974 22.819l-0.395 1.369h-0.010l-0.395-1.369h-0.519l0.674 1.988v1.456h0.491v-1.456l0.674-1.988h-0.52zM16.5 27.235h0.236v0.664h0.16v-0.663h0.235v-0.136h-0.632v0.136zM18.488 27.099l-0.31 0.799h0.171l0.066-0.182h0.319l0.068 0.182h0.175l-0.318-0.8h-0.171zM18.463 27.582l0.108-0.296 0.108 0.297h-0.218zM20.454 27.604h0.185v0.103c-0.052 0.042-0.118 0.067-0.19 0.067h-0c-0.004 0-0.008 0-0.012 0-0.064 0-0.121-0.030-0.158-0.076l-0-0c-0.037-0.053-0.059-0.119-0.059-0.191 0-0.006 0-0.013 0.001-0.019l-0 0.001c0-0.178 0.077-0.267 0.23-0.267 0.005-0.001 0.011-0.001 0.017-0.001 0.079 0 0.145 0.054 0.163 0.127l0 0.001 0.158-0.030c-0.034-0.157-0.146-0.235-0.339-0.235-0.003-0-0.007-0-0.011-0-0.103 0-0.198 0.039-0.269 0.103l0-0c-0.072 0.071-0.116 0.169-0.116 0.278 0 0.011 0 0.021 0.001 0.031l-0-0.001c-0 0.006-0 0.012-0 0.019 0 0.108 0.039 0.206 0.103 0.282l-0.001-0.001c0.071 0.073 0.169 0.118 0.279 0.118 0.009 0 0.017-0 0.026-0.001l-0.001 0c0.004 0 0.008 0 0.013 0 0.126 0 0.241-0.049 0.327-0.128l-0 0v-0.315h-0.346v0.135zM22.462 27.099h-0.162v0.799h0.56v-0.136h-0.398v-0.664zM24.159 27.099h-0.162v0.799h0.162v-0.8zM25.818 27.634l-0.328-0.535h-0.157v0.8h0.15v-0.523l0.322 0.523h0.161v-0.8h-0.148v0.535zM27.319 27.547h0.398v-0.137h-0.398v-0.175h0.428v-0.136h-0.59v0.799h0.607v-0.136h-0.445v-0.216zM30.956 27.415h-0.315v-0.316h-0.16v0.799h0.16v-0.35h0.315v0.35h0.161v-0.8h-0.161v0.316zM32.465 27.547h0.4v-0.137h-0.4v-0.175h0.43v-0.136h-0.59v0.799h0.606v-0.136h-0.445v-0.216zM34.511 27.547c0.139-0.022 0.21-0.096 0.21-0.223 0.001-0.007 0.001-0.015 0.001-0.022 0-0.064-0.031-0.12-0.079-0.155l-0.001-0c-0.059-0.030-0.129-0.048-0.203-0.048-0.011 0-0.022 0-0.033 0.001l0.001-0h-0.339v0.799h0.161v-0.334h0.032c0.004-0 0.009-0 0.013-0 0.031 0 0.061 0.007 0.088 0.019l-0.001-0.001c0.023 0.015 0.043 0.035 0.057 0.058l0.175 0.254h0.192l-0.097-0.156c-0.044-0.078-0.104-0.142-0.175-0.191l-0.002-0.001zM34.349 27.436h-0.118v-0.201h0.127c0.010-0.001 0.022-0.001 0.034-0.001 0.046 0 0.091 0.007 0.132 0.021l-0.003-0.001c0.022 0.019 0.035 0.047 0.035 0.078 0 0.018-0.005 0.035-0.013 0.050l0-0.001c-0.008 0.014-0.018 0.026-0.030 0.035l-0 0c-0.040 0.013-0.086 0.020-0.133 0.020-0.011 0-0.021-0-0.032-0.001l0.001 0zM36.055 27.547h0.398v-0.137h-0.398v-0.175h0.43v-0.136h-0.592v0.799h0.607v-0.136h-0.445v-0.216z"></path>
</symbol>
<symbol id="icon-logo3" viewBox="0 0 56 32">
<path  d="M19.098 26.192c0.008 0 0.017 0.002 0.024 0.005s0.015 0.007 0.020 0.013l-0-0 0.114 0.109c-0.089 0.089-0.199 0.159-0.322 0.208-0.127 0.047-0.274 0.075-0.427 0.075-0.010 0-0.021-0-0.031-0l0.002 0c-0.147 0.003-0.293-0.021-0.429-0.070-0.125-0.046-0.233-0.112-0.324-0.197l0.001 0.001c-0.088-0.083-0.159-0.184-0.206-0.297l-0.002-0.006c-0.047-0.112-0.073-0.242-0.073-0.378 0-0.004 0-0.008 0-0.012v0.001c-0-0.006-0-0.013-0-0.020 0-0.267 0.116-0.507 0.3-0.673l0.001-0.001c0.097-0.084 0.211-0.152 0.336-0.196l0.007-0.002c0.141-0.047 0.291-0.071 0.442-0.069 0.14-0.003 0.28 0.018 0.41 0.063 0.113 0.043 0.217 0.102 0.308 0.176l-0.096 0.117c-0.007 0.008-0.015 0.015-0.024 0.021l-0 0c-0.009 0.005-0.021 0.009-0.033 0.009-0.002 0-0.004-0-0.006-0l0 0c-0.016-0.001-0.030-0.005-0.042-0.012l0 0-0.051-0.031-0.072-0.039c-0.065-0.032-0.141-0.056-0.221-0.069l-0.005-0.001c-0.048-0.008-0.102-0.013-0.158-0.013-0.004 0-0.008 0-0.013 0h0.001c-0.003-0-0.007-0-0.010-0-0.11 0-0.216 0.019-0.314 0.055l0.006-0.002c-0.094 0.033-0.179 0.083-0.249 0.147-0.071 0.067-0.126 0.147-0.162 0.233-0.037 0.088-0.058 0.19-0.058 0.297 0 0.004 0 0.008 0 0.011v-0.001c-0 0.004-0 0.008-0 0.013 0 0.108 0.021 0.212 0.060 0.306l-0.002-0.005c0.035 0.086 0.089 0.165 0.159 0.232 0.066 0.063 0.147 0.113 0.238 0.144 0.093 0.034 0.193 0.050 0.294 0.050 0.058 0.001 0.117-0.003 0.175-0.010 0.146-0.015 0.275-0.073 0.379-0.161l-0.001 0.001c0.015-0.012 0.033-0.019 0.054-0.020h0zM22.402 25.642c0.002 0.132-0.024 0.263-0.077 0.387-0.051 0.118-0.124 0.219-0.214 0.299l-0.001 0.001c-0.095 0.084-0.208 0.151-0.331 0.195l-0.007 0.002c-0.13 0.044-0.279 0.070-0.435 0.070s-0.305-0.026-0.445-0.073l0.010 0.003c-0.13-0.046-0.241-0.113-0.337-0.198l0.001 0.001c-0.092-0.083-0.165-0.184-0.215-0.298l-0.002-0.006c-0.049-0.114-0.077-0.247-0.077-0.387s0.028-0.273 0.080-0.393l-0.003 0.007c0.049-0.113 0.123-0.217 0.218-0.304 0.095-0.083 0.21-0.148 0.336-0.19 0.13-0.045 0.279-0.071 0.435-0.071s0.305 0.026 0.445 0.074l-0.010-0.003c0.127 0.045 0.242 0.112 0.337 0.197 0.094 0.087 0.168 0.189 0.216 0.3 0.053 0.125 0.079 0.257 0.077 0.389zM22.102 25.642c0-0.005 0-0.010 0-0.016 0-0.106-0.020-0.207-0.057-0.3l0.002 0.006c-0.069-0.179-0.212-0.317-0.39-0.378l-0.005-0.001c-0.094-0.032-0.203-0.051-0.316-0.051s-0.222 0.019-0.323 0.053l0.007-0.002c-0.094 0.033-0.175 0.083-0.242 0.147l0-0c-0.067 0.063-0.12 0.141-0.153 0.228l-0.001 0.004c-0.035 0.092-0.055 0.199-0.055 0.311s0.020 0.218 0.057 0.317l-0.002-0.006c0.070 0.179 0.213 0.317 0.392 0.376l0.004 0.001c0.204 0.067 0.428 0.067 0.632 0 0.092-0.032 0.174-0.082 0.241-0.145 0.069-0.068 0.121-0.147 0.153-0.232 0.038-0.1 0.057-0.205 0.055-0.311zM24.656 25.967l0.030 0.070c0.011-0.025 0.021-0.047 0.033-0.069 0.013-0.027 0.025-0.049 0.039-0.071l-0.002 0.003 0.731-1.155c0.015-0.020 0.027-0.033 0.042-0.036s0.032-0.007 0.050-0.007c0.003 0 0.007 0 0.010 0l-0-0h0.216v1.878h-0.256v-1.439c-0.001-0.010-0.001-0.021-0.001-0.033s0-0.023 0.001-0.034l-0 0.002-0.736 1.171c-0.010 0.018-0.025 0.033-0.042 0.042l-0.001 0c-0.018 0.010-0.039 0.016-0.062 0.016-0 0-0.001 0-0.001 0h-0.041c-0 0-0.001 0-0.002 0-0.023 0-0.044-0.006-0.062-0.016l0.001 0c-0.018-0.010-0.033-0.024-0.042-0.042l-0-0.001-0.757-1.178v1.507h-0.247v-1.873h0.216c0.003-0 0.007-0 0.010-0 0.018 0 0.035 0.002 0.052 0.007l-0.001-0c0.018 0.008 0.031 0.020 0.040 0.036l0.747 1.156c0.015 0.021 0.027 0.044 0.037 0.067zM27.407 25.874v0.703h-0.285v-1.874h0.638c0.121-0.002 0.24 0.012 0.356 0.041 0.092 0.023 0.178 0.063 0.252 0.117 0.061 0.048 0.109 0.11 0.141 0.181l0.001 0.003c0.034 0.077 0.050 0.158 0.049 0.24 0 0.004 0 0.008 0 0.012 0 0.169-0.081 0.32-0.206 0.415l-0.001 0.001c-0.073 0.056-0.16 0.099-0.253 0.124-0.097 0.028-0.208 0.044-0.322 0.044-0.008 0-0.016-0-0.023-0l-0.345-0.005zM27.407 25.673h0.346c0.075 0.001 0.15-0.009 0.222-0.028 0.061-0.018 0.115-0.046 0.161-0.082l-0.001 0.001c0.080-0.067 0.131-0.166 0.131-0.278 0-0.002 0-0.003-0-0.005v0c0-0.006 0.001-0.013 0.001-0.020 0-0.048-0.011-0.094-0.030-0.134l0.001 0.002c-0.024-0.051-0.058-0.094-0.099-0.128l-0.001-0c-0.096-0.064-0.213-0.102-0.34-0.102-0.016 0-0.032 0.001-0.047 0.002l0.002-0h-0.346v0.773zM31.251 26.58h-0.226c-0.001 0-0.003 0-0.004 0-0.022 0-0.042-0.006-0.059-0.018l0 0c-0.016-0.011-0.029-0.026-0.037-0.043l-0-0.001-0.194-0.453h-0.977l-0.201 0.453c-0.017 0.036-0.054 0.061-0.096 0.061-0.001 0-0.002-0-0.004-0h-0.226l0.858-1.878h0.297l0.87 1.878zM29.835 25.883h0.807l-0.34-0.764c-0.026-0.058-0.047-0.117-0.065-0.177l-0.033 0.098c-0.010 0.030-0.021 0.058-0.031 0.080l-0.337 0.763zM32.487 24.711c0.017 0.008 0.031 0.020 0.042 0.034l1.252 1.415v-1.458h0.256v1.878h-0.143c-0.001 0-0.002 0-0.003 0-0.020 0-0.039-0.004-0.056-0.012l0.001 0c-0.018-0.009-0.033-0.021-0.046-0.035l-0-0-1.25-1.414c0.001 0.010 0.001 0.021 0.001 0.032s-0 0.023-0.001 0.034l0-0.002v1.395h-0.256v-1.878h0.152c0.001-0 0.002-0 0.003-0 0.017 0 0.034 0.003 0.050 0.009l-0.001-0zM36.146 25.833v0.745h-0.286v-0.745l-0.791-1.131h0.256c0.002-0 0.004-0 0.006-0 0.020 0 0.039 0.006 0.056 0.016l-0-0c0.016 0.013 0.029 0.027 0.039 0.043l0.495 0.73c0.020 0.031 0.037 0.060 0.051 0.087s0.026 0.053 0.036 0.079l0.037-0.081c0.014-0.029 0.030-0.058 0.049-0.085l0.488-0.734c0.011-0.015 0.023-0.028 0.036-0.040l0-0c0.016-0.012 0.035-0.018 0.056-0.018 0.002 0 0.004 0 0.006 0h0.258l-0.792 1.136zM24.515 21.551c0.124 0.014 0.25 0.025 0.378 0.035 1.93-0.75 3.563-1.978 4.694-3.529s1.711-3.359 1.667-5.196l-2.127-1.848c0.432 1.955 0.23 3.976-0.584 5.838s-2.209 3.489-4.027 4.7z"></path>
<path  d="M23.756 21.465l0.057 0.011c1.943-1.208 3.424-2.894 4.252-4.841s0.965-4.065 0.393-6.080l-3.029-2.632c1.225 2.163 1.719 4.585 1.422 6.982-0.296 2.397-1.369 4.672-3.095 6.56zM34.029 15.031c-0.515 2.018-1.765 3.837-3.564 5.189-0.492 0.374-1.046 0.725-1.63 1.026l-0.063 0.030c1.466-0.374 2.812-1.036 3.937-1.934s1.997-2.008 2.55-3.246l-1.229-1.066z"></path>
<path  d="M33.547 14.734l-1.749-1.52c-0.034 1.733-0.601 3.426-1.642 4.904s-2.52 2.687-4.281 3.501h0.008c0.414-0 0.822-0.022 1.224-0.065l-0.050 0.004c1.646-0.584 3.1-1.512 4.232-2.703s1.908-2.606 2.257-4.121zM24.008 6.813l-2.087-1.816c-1.865 0.626-3.47 1.727-4.603 3.159s-1.743 3.128-1.748 4.865c0.007 1.92 0.751 3.783 2.114 5.295 1.362 1.511 3.267 2.585 5.411 3.050 1.914-2.026 3.035-4.529 3.199-7.146s-0.636-5.212-2.285-7.407zM38.369 14.454c-0.007-2.278-1.052-4.461-2.906-6.072s-4.367-2.519-6.989-2.525c-0.006 0-0.014-0-0.021-0-1.26 0-2.471 0.21-3.6 0.596l0.078-0.023 12.776 11.1c0.416-0.904 0.66-1.962 0.661-3.076v-0z"></path>
</symbol>
<symbol id="icon-logo4" viewBox="0 0 56 32">
<path  d="M12.667 11.504h-0.002c-1.258 0-2.278 0.906-2.278 2.024v0.001c0 1.118 1.020 2.024 2.278 2.024h0.002c1.258 0 2.278-0.906 2.278-2.024v-0.001c0-1.118-1.020-2.025-2.278-2.025zM29.479 10.856c-0.004-1.553-0.699-3.041-1.935-4.139s-2.91-1.716-4.657-1.72c-1.748 0.003-3.423 0.621-4.659 1.719s-1.932 2.587-1.936 4.14v8.563s13.185-1.305 13.187-8.561v-0.002zM5.771 22.23c0.003 1.081 0.488 2.116 1.347 2.88s2.024 1.195 3.24 1.198c1.215-0.003 2.38-0.434 3.24-1.198s1.344-1.799 1.347-2.879v-5.958s-9.174 0.909-9.174 5.957zM10.357 23.298c-0.238 0-0.47-0.063-0.667-0.18-0.192-0.113-0.344-0.277-0.439-0.473l-0.003-0.007c-0.058-0.119-0.091-0.26-0.091-0.408 0-0.074 0.008-0.146 0.024-0.215l-0.001 0.006c0.046-0.207 0.161-0.397 0.328-0.546s0.382-0.251 0.615-0.292c0.071-0.013 0.152-0.021 0.235-0.021 0.165 0 0.323 0.030 0.468 0.084l-0.009-0.003c0.22 0.081 0.407 0.218 0.539 0.393s0.203 0.382 0.203 0.593c0 0.001 0 0.002 0 0.003 0 0.148-0.033 0.288-0.093 0.413l0.002-0.006c-0.065 0.136-0.152 0.252-0.259 0.346l-0.001 0.001c-0.111 0.1-0.244 0.178-0.39 0.233-0.136 0.052-0.294 0.081-0.458 0.081-0.001 0-0.002 0-0.002 0h0v-0.004zM19.629 22.709h-0.886v0.914h-0.461v-2.238h1.457v0.373h-0.996v0.578h0.886v0.372zM21.845 22.556c0 0.22-0.039 0.413-0.116 0.579s-0.19 0.294-0.336 0.385c-0.137 0.085-0.303 0.136-0.481 0.136-0.006 0-0.012-0-0.017-0h0.001c-0.186 0-0.351-0.045-0.497-0.134-0.147-0.092-0.263-0.222-0.336-0.376l-0.002-0.005c-0.077-0.162-0.121-0.352-0.121-0.552 0-0.007 0-0.014 0-0.021v0.001-0.11c0-0.22 0.039-0.414 0.118-0.581 0.080-0.168 0.192-0.297 0.337-0.386 0.145-0.090 0.311-0.135 0.498-0.135s0.351 0.045 0.496 0.135c0.146 0.089 0.258 0.218 0.337 0.386 0.080 0.167 0.12 0.36 0.12 0.579v0.1zM21.378 22.454c0-0.235-0.042-0.413-0.126-0.535-0.075-0.111-0.2-0.183-0.342-0.183-0.006 0-0.013 0-0.019 0l0.001-0c-0.005-0-0.011-0-0.017-0-0.141 0-0.266 0.072-0.34 0.18l-0.001 0.001c-0.084 0.12-0.126 0.296-0.127 0.529v0.109c0 0.228 0.042 0.405 0.126 0.532s0.205 0.189 0.363 0.189c0.005 0 0.012 0 0.018 0 0.141 0 0.265-0.072 0.338-0.18l0.001-0.001c0.083-0.122 0.125-0.299 0.126-0.532v-0.109zM23.34 23.036c0-0.004 0-0.008 0-0.013 0-0.076-0.036-0.143-0.092-0.186l-0.001-0c-0.061-0.047-0.172-0.097-0.332-0.147-0.147-0.046-0.273-0.098-0.393-0.16l0.013 0.006c-0.254-0.137-0.381-0.323-0.381-0.555 0-0.121 0.034-0.228 0.101-0.323 0.069-0.095 0.167-0.169 0.294-0.223 0.128-0.053 0.272-0.080 0.43-0.080 0.16 0 0.302 0.029 0.428 0.088 0.125 0.058 0.222 0.139 0.29 0.244 0.070 0.105 0.105 0.226 0.105 0.359h-0.462c0-0.102-0.031-0.182-0.097-0.238-0.065-0.058-0.155-0.086-0.272-0.086-0.113 0-0.2 0.024-0.263 0.072-0.057 0.041-0.094 0.107-0.094 0.182 0 0.002 0 0.004 0 0.005v-0c0 0.073 0.037 0.134 0.109 0.183 0.093 0.057 0.201 0.104 0.315 0.136l0.009 0.002c0.262 0.079 0.453 0.177 0.573 0.294s0.18 0.262 0.18 0.436c0 0.194-0.073 0.346-0.22 0.456s-0.343 0.165-0.591 0.165c-0.172 0-0.329-0.031-0.471-0.094-0.133-0.056-0.243-0.145-0.323-0.257l-0.002-0.002c-0.069-0.103-0.11-0.23-0.11-0.367 0-0.005 0-0.010 0-0.015v0.001h0.462c0 0.247 0.147 0.37 0.443 0.37 0.11 0 0.195-0.022 0.257-0.066 0.056-0.040 0.092-0.105 0.092-0.179 0-0.003-0-0.006-0-0.009v0zM25.801 21.759h-0.685v1.864h-0.462v-1.864h-0.675v-0.373h1.822v0.373zM27.411 22.654h-0.885v0.6h1.039v0.37h-1.5v-2.238h1.497v0.373h-1.036v0.534h0.886v0.361zM28.664 22.804h-0.367v0.819h-0.461v-2.238h0.831c0.264 0 0.468 0.059 0.612 0.177s0.215 0.284 0.215 0.499c0 0.153-0.033 0.281-0.1 0.383-0.074 0.107-0.176 0.191-0.295 0.241l-0.004 0.002 0.484 0.914v0.021h-0.495l-0.42-0.819zM28.297 22.431h0.372c0.115 0 0.205-0.029 0.269-0.088 0.059-0.058 0.095-0.138 0.095-0.227 0-0.006-0-0.012-0-0.018l0 0.001c0-0.106-0.030-0.189-0.090-0.249s-0.151-0.091-0.275-0.091h-0.37v0.671zM31.091 22.835v0.788h-0.461v-2.238h0.873c0.168 0 0.316 0.031 0.443 0.092 0.128 0.061 0.227 0.149 0.295 0.263 0.068 0.113 0.103 0.241 0.103 0.386 0 0.219-0.076 0.392-0.226 0.519-0.15 0.126-0.357 0.189-0.623 0.189h-0.404zM31.091 22.462h0.412c0.122 0 0.215-0.029 0.278-0.086 0.065-0.058 0.097-0.14 0.097-0.246 0-0.005 0-0.011 0-0.017 0-0.096-0.037-0.184-0.097-0.25l0 0c-0.065-0.067-0.154-0.102-0.268-0.104h-0.423v0.703zM34.008 22.654h-0.885v0.6h1.039v0.37h-1.5v-2.238h1.497v0.373h-1.036v0.534h0.886v0.361zM36.147 21.759h-0.686v1.864h-0.461v-1.864h-0.676v-0.373h1.823v0.373zM37.758 22.654h-0.884v0.6h1.039v0.37h-1.5v-2.238h1.497v0.373h-1.036v0.534h0.885v0.361zM39.011 22.804h-0.367v0.819h-0.462v-2.238h0.832c0.264 0 0.468 0.059 0.612 0.177s0.215 0.284 0.215 0.499c0 0.153-0.034 0.281-0.1 0.383-0.074 0.108-0.176 0.191-0.296 0.241l-0.004 0.002 0.484 0.914v0.021h-0.495l-0.42-0.819zM38.643 22.431h0.372c0.115 0 0.205-0.029 0.269-0.088 0.059-0.058 0.096-0.139 0.096-0.228 0-0.006-0-0.012-0-0.017l0 0.001c0-0.106-0.030-0.189-0.091-0.249-0.059-0.060-0.151-0.091-0.275-0.091h-0.37v0.671zM41.353 23.037c0-0.004 0-0.009 0-0.013 0-0.076-0.036-0.143-0.092-0.186l-0.001-0c-0.061-0.047-0.172-0.097-0.332-0.147-0.147-0.046-0.273-0.098-0.393-0.16l0.013 0.006c-0.254-0.137-0.381-0.323-0.381-0.555 0-0.121 0.034-0.228 0.101-0.323 0.069-0.095 0.167-0.169 0.294-0.223 0.128-0.053 0.272-0.080 0.43-0.080 0.16 0 0.302 0.029 0.428 0.088 0.125 0.058 0.222 0.139 0.29 0.244 0.070 0.105 0.105 0.226 0.105 0.359h-0.462c0-0.102-0.031-0.182-0.097-0.238-0.065-0.058-0.155-0.086-0.272-0.086-0.113 0-0.2 0.024-0.263 0.072-0.057 0.041-0.094 0.107-0.094 0.183 0 0.002 0 0.003 0 0.005v-0c0 0.073 0.037 0.134 0.11 0.183s0.182 0.095 0.324 0.138c0.262 0.079 0.453 0.177 0.573 0.294s0.18 0.262 0.18 0.436c0 0.194-0.073 0.346-0.22 0.456s-0.344 0.165-0.591 0.165c-0.172 0-0.329-0.031-0.471-0.094-0.133-0.056-0.243-0.145-0.323-0.257l-0.002-0.002c-0.069-0.103-0.11-0.23-0.11-0.367 0-0.005 0-0.010 0-0.015v0.001h0.462c0 0.247 0.147 0.37 0.443 0.37 0.11 0 0.195-0.022 0.257-0.066 0.056-0.040 0.093-0.105 0.093-0.179 0-0.003-0-0.006-0-0.009v0z"></path>
</symbol>
<symbol id="icon-logo5" viewBox="0 0 56 32">
<path  d="M14.036 23.901c0.128 0.145 0.196 0.326 0.193 0.513 0.001 0.012 0.001 0.025 0.001 0.039 0 0.115-0.026 0.223-0.072 0.32l0.002-0.005c-0.055 0.117-0.133 0.214-0.228 0.291l-0.002 0.001c-0.217 0.15-0.486 0.24-0.776 0.24-0.032 0-0.063-0.001-0.094-0.003l0.004 0h-1.523v-3.248h1.492c0.026-0.002 0.057-0.003 0.088-0.003 0.274 0 0.53 0.081 0.744 0.221l-0.005-0.003c0.097 0.075 0.173 0.168 0.223 0.273 0.050 0.106 0.073 0.22 0.067 0.336 0.008 0.178-0.052 0.355-0.173 0.496-0.116 0.129-0.276 0.219-0.454 0.254 0.202 0.034 0.385 0.132 0.514 0.278zM12.25 23.411h0.638c0.145 0.009 0.289-0.029 0.405-0.108 0.046-0.038 0.083-0.087 0.108-0.142l0.001-0.002c0.019-0.042 0.030-0.091 0.030-0.142 0-0.011-0-0.022-0.001-0.032l0 0.001c0.001-0.008 0.001-0.018 0.001-0.027 0-0.052-0.011-0.102-0.031-0.148l0.001 0.002c-0.025-0.057-0.061-0.106-0.106-0.144l-0.001-0c-0.103-0.070-0.23-0.112-0.367-0.112-0.018 0-0.036 0.001-0.053 0.002l0.002-0h-0.628v0.852zM13.356 24.656c0.050-0.040 0.090-0.089 0.116-0.146l0.001-0.003c0.021-0.046 0.034-0.099 0.034-0.156 0-0.009-0-0.018-0.001-0.027l0 0.001c0-0.007 0.001-0.015 0.001-0.024 0-0.058-0.013-0.113-0.036-0.162l0.001 0.002c-0.029-0.060-0.069-0.11-0.119-0.149l-0.001-0.001c-0.11-0.074-0.245-0.119-0.391-0.119-0.015 0-0.030 0-0.044 0.001l0.002-0h-0.669v0.893h0.678c0.152 0.008 0.303-0.031 0.428-0.113zM17.086 25.297l-0.829-1.27h-0.312v1.27h-0.714v-3.248h1.352c0.029-0.002 0.062-0.003 0.096-0.003 0.318 0 0.612 0.105 0.848 0.282l-0.004-0.003c0.189 0.176 0.303 0.409 0.322 0.655s-0.060 0.491-0.221 0.689c-0.168 0.173-0.39 0.292-0.639 0.329l-0.006 0.001 0.884 1.298h-0.776zM15.944 23.585h0.584c0.405 0 0.609-0.164 0.609-0.492 0-0.008 0.001-0.017 0.001-0.026 0-0.062-0.012-0.12-0.035-0.173l0.001 0.003c-0.028-0.066-0.067-0.122-0.116-0.168l-0-0c-0.111-0.084-0.251-0.135-0.404-0.135-0.020 0-0.039 0.001-0.058 0.003l0.003-0h-0.591l0.007 0.988zM20.989 24.644h-1.423l-0.251 0.654h-0.749l1.306-3.212h0.81l1.301 3.212h-0.748l-0.246-0.654zM20.798 24.152l-0.52-1.371-0.52 1.371h1.040zM25.874 25.297h-0.708l-1.59-2.209v2.209h-0.707v-3.248h0.707l1.59 2.221v-2.221h0.708v3.248zM29.919 24.519c-0.147 0.245-0.37 0.445-0.642 0.573-0.275 0.13-0.598 0.205-0.939 0.205-0.020 0-0.041-0-0.061-0.001l0.003 0h-1.261v-3.248h1.262c0.018-0 0.038-0.001 0.059-0.001 0.34 0 0.662 0.074 0.952 0.206l-0.014-0.006c0.271 0.126 0.495 0.323 0.641 0.567 0.146 0.264 0.222 0.556 0.222 0.852s-0.076 0.588-0.222 0.852zM29.108 24.442c0.202-0.216 0.313-0.491 0.313-0.775-0.002-0.301-0.121-0.574-0.314-0.775l0 0c-0.22-0.174-0.501-0.279-0.807-0.279-0.028 0-0.057 0.001-0.085 0.003l0.004-0h-0.492v2.103h0.492c0.024 0.002 0.053 0.003 0.082 0.003 0.305 0 0.586-0.105 0.809-0.281l-0.003 0.002zM21.433 3.983s9.148 3.162 8.954 7.738v7.74s-9.142-3.163-8.951-7.74l-0.003-7.738zM38.536 17.649c1.728-1.089 3.726-1.763 5.812-1.961v-2.423c-2.404 0.848-4.443 2.386-5.812 4.384z"></path>
<path  d="M37.499 18.38c1.414-2.607 3.865-4.619 6.85-5.622v-6.981s-13.028 4.505-12.753 11.021v11.020s0.581-0.201 1.494-0.579c0-0.352 0-0.708 0.042-1.065 0.269-3.025 1.84-5.828 4.367-7.793z"></path>
<path  d="M36.26 22.473c0.076-0.833 0.237-1.6 0.476-2.331l-0.021 0.074c-1.573 1.697-2.526 3.803-2.724 6.022-0.019 0.209-0.030 0.419-0.035 0.635 1.087-0.475 1.91-0.88 2.716-1.312l-0.21 0.103c-0.231-1.050-0.299-2.124-0.203-3.191zM36.778 22.513c-0.026 0.268-0.040 0.579-0.040 0.894 0 0.706 0.073 1.395 0.213 2.060l-0.011-0.065c3.559-1.95 7.559-4.964 7.405-8.605v-0.317c-2.543 0.261-4.922 1.278-6.772 2.897-0.408 0.917-0.69 1.981-0.791 3.096l-0.003 0.039z"></path>
</symbol>
<symbol id="icon-logo6" viewBox="0 0 56 32">
<path  d="M28.026 14.811c-0.2-0.258-0.321-0.586-0.321-0.943 0-0.035 0.001-0.070 0.003-0.105l-0 0.005v-1.512c0-0.464 0.105-0.816 0.316-1.057 0.21-0.241 0.571-0.361 1.083-0.36 0.481 0 0.823 0.103 1.025 0.308 0.22 0.262 0.328 0.582 0.303 0.904v0.356h-0.86v-0.36c0.003-0.118-0.005-0.236-0.025-0.353-0.015-0.085-0.059-0.158-0.123-0.209l-0.001-0.001c-0.077-0.052-0.172-0.083-0.275-0.083-0.013 0-0.026 0.001-0.039 0.001l0.002-0c-0.011-0.001-0.024-0.001-0.037-0.001-0.108 0-0.209 0.033-0.293 0.089l0.002-0.001c-0.071 0.057-0.122 0.137-0.142 0.228l-0 0.003c-0.022 0.104-0.034 0.223-0.034 0.345 0 0.010 0 0.021 0 0.031l-0-0.002v1.836c-0.014 0.177 0.025 0.354 0.11 0.515 0.045 0.055 0.103 0.098 0.169 0.124l0.003 0.001c0.050 0.020 0.109 0.032 0.17 0.032 0.018 0 0.037-0.001 0.054-0.003l-0.002 0c0.011 0.001 0.024 0.001 0.036 0.001 0.1 0 0.193-0.032 0.269-0.085l-0.001 0.001c0.066-0.055 0.113-0.133 0.128-0.221l0-0.002c0.020-0.122 0.029-0.245 0.027-0.368v-0.372h0.861v0.34c0.002 0.027 0.003 0.058 0.003 0.090 0 0.327-0.113 0.627-0.302 0.864l0.002-0.003c-0.198 0.225-0.535 0.337-1.030 0.337s-0.87-0.12-1.082-0.369zM31.61 14.827c-0.218-0.236-0.326-0.579-0.326-1.032v-1.591c0-0.45 0.109-0.79 0.326-1.020s0.581-0.346 1.091-0.345c0.506 0 0.868 0.115 1.085 0.345 0.217 0.231 0.328 0.571 0.328 1.020v1.591c0 0.45-0.11 0.794-0.332 1.031s-0.581 0.355-1.082 0.355-0.871-0.12-1.091-0.354zM33.102 14.445c0.078-0.147 0.113-0.309 0.103-0.471v-1.948c0.001-0.016 0.002-0.034 0.002-0.052 0-0.15-0.038-0.291-0.105-0.414l0.002 0.005c-0.046-0.057-0.105-0.1-0.173-0.126l-0.003-0.001c-0.050-0.020-0.108-0.031-0.169-0.031-0.021 0-0.041 0.001-0.061 0.004l0.002-0c-0.017-0.002-0.038-0.004-0.058-0.004-0.061 0-0.119 0.011-0.173 0.032l0.003-0.001c-0.071 0.027-0.131 0.071-0.176 0.126l-0.001 0.001c-0.079 0.144-0.114 0.303-0.103 0.462v1.957c-0.011 0.162 0.025 0.324 0.103 0.471 0.050 0.049 0.112 0.089 0.181 0.116 0.066 0.026 0.142 0.042 0.221 0.042s0.156-0.015 0.225-0.043l-0.004 0.001c0.070-0.027 0.131-0.067 0.181-0.116v-0.009zM35.15 10.885h0.926l0.697 2.935 0.713-2.935h0.901l0.091 4.237h-0.667l-0.071-2.945-0.688 2.945h-0.535l-0.712-2.955-0.066 2.955h-0.674l0.084-4.237zM39.517 10.885h1.444c0.831 0 1.247 0.401 1.247 1.203 0 0.768-0.438 1.152-1.314 1.151h-0.492v1.883h-0.891l0.005-4.237zM40.751 12.696c0.088 0.010 0.177 0.003 0.262-0.020 0.084-0.024 0.163-0.062 0.228-0.114 0.102-0.143 0.147-0.311 0.129-0.478 0.001-0.014 0.001-0.030 0.001-0.047 0-0.12-0.016-0.237-0.046-0.347l0.002 0.009c-0.014-0.045-0.037-0.084-0.066-0.117l0 0c-0.031-0.035-0.068-0.063-0.11-0.084l-0.002-0.001c-0.104-0.044-0.224-0.069-0.351-0.069-0.016 0-0.033 0-0.049 0.001l0.002-0h-0.346v1.266h0.346zM43.494 10.885h0.957l0.982 4.237h-0.831l-0.194-0.977h-0.853l-0.199 0.977h-0.843l0.981-4.237zM44.312 13.655l-0.334-1.778-0.333 1.778h0.666zM46.225 10.885h0.624l1.193 2.417v-2.417h0.74v4.237h-0.593l-1.201-2.523v2.523h-0.764l0.002-4.237zM50.515 13.507l-0.993-2.616h0.836l0.606 1.68 0.568-1.68h0.818l-0.98 2.616v1.616h-0.855v-1.616zM29.402 16.975v0.221h-0.727v1.722h-0.305v-1.722h-0.731v-0.221h1.763zM31.682 18.918h-0.236c-0.002 0-0.004 0-0.006 0-0.022 0-0.043-0.007-0.060-0.019l0 0c-0.017-0.011-0.030-0.026-0.039-0.044l-0-0.001-0.21-0.462h-1.009l-0.21 0.462c-0.007 0.021-0.018 0.038-0.032 0.052l-0 0c-0.017 0.012-0.038 0.018-0.060 0.018-0.002 0-0.004-0-0.006-0h-0.235l0.891-1.943h0.309l0.902 1.936zM30.206 18.196h0.841l-0.357-0.791c-0.023-0.050-0.045-0.11-0.063-0.173l-0.002-0.010c-0.013 0.037-0.023 0.072-0.034 0.103l-0.033 0.081-0.353 0.79zM33.218 18.727c0.056 0.003 0.112 0.003 0.168 0 0.048-0.004 0.095-0.012 0.142-0.023 0.044-0.009 0.087-0.021 0.129-0.035 0.039-0.014 0.079-0.031 0.119-0.048v-0.437h-0.356c-0.001 0-0.003 0-0.004 0-0.008 0-0.015-0.001-0.022-0.003l0.001 0c-0.008-0.003-0.016-0.007-0.022-0.012l0 0c-0.006-0.004-0.010-0.009-0.014-0.015l-0-0c-0.003-0.005-0.004-0.011-0.004-0.018 0-0.001 0-0.002 0-0.002v0-0.149h0.691v0.745c-0.108 0.068-0.233 0.122-0.366 0.156l-0.009 0.002c-0.073 0.018-0.147 0.031-0.223 0.040-0.077 0.008-0.165 0.012-0.255 0.012-0.002 0-0.003 0-0.005 0h0c-0.003 0-0.007 0-0.011 0-0.157 0-0.307-0.027-0.448-0.075l0.010 0.003c-0.137-0.048-0.256-0.117-0.358-0.204l0.002 0.001c-0.095-0.085-0.173-0.187-0.227-0.302l-0.002-0.006c-0.052-0.115-0.082-0.249-0.082-0.39 0-0.004 0-0.009 0-0.013v0.001c-0-0.004-0-0.008-0-0.012 0-0.142 0.030-0.278 0.083-0.401l-0.003 0.006c0.051-0.115 0.13-0.22 0.23-0.308 0.102-0.088 0.223-0.156 0.357-0.201 0.152-0.050 0.315-0.075 0.477-0.072 0.083 0 0.166 0.005 0.248 0.017 0.072 0.011 0.144 0.027 0.212 0.049 0.063 0.020 0.122 0.046 0.178 0.077 0.055 0.030 0.106 0.064 0.155 0.101l-0.086 0.121c-0.007 0.011-0.017 0.020-0.028 0.026l-0 0c-0.012 0.006-0.026 0.010-0.041 0.011h-0c-0.020-0.001-0.039-0.006-0.056-0.016l0.001 0c-0.036-0.017-0.065-0.032-0.093-0.049l0.005 0.003c-0.033-0.019-0.073-0.036-0.114-0.051l-0.006-0.002c-0.045-0.016-0.101-0.031-0.157-0.042l-0.007-0.001c-0.064-0.011-0.138-0.017-0.214-0.017-0.004 0-0.009 0-0.013 0h0.001c-0.003-0-0.007-0-0.011-0-0.119 0-0.234 0.020-0.341 0.056l0.007-0.002c-0.099 0.034-0.189 0.087-0.262 0.154-0.070 0.066-0.127 0.147-0.164 0.237l-0.002 0.005c-0.038 0.096-0.060 0.207-0.060 0.324s0.022 0.228 0.062 0.33l-0.002-0.006c0.039 0.092 0.1 0.175 0.178 0.245 0.073 0.067 0.162 0.119 0.26 0.154 0.113 0.034 0.233 0.047 0.353 0.038zM36.058 18.696h0.973v0.221h-1.27v-1.943h0.304l-0.007 1.722zM38.043 18.918h-0.304v-1.943h0.304v1.943zM39.177 16.984c0.018 0.009 0.034 0.021 0.047 0.035l0 0 1.303 1.465c-0.001-0.010-0.001-0.022-0.001-0.035s0-0.024 0.001-0.036l-0 0.002v-1.448h0.265v1.951h-0.153c-0.003 0-0.007 0-0.010 0-0.020 0-0.039-0.004-0.057-0.012l0.001 0c-0.019-0.010-0.034-0.022-0.048-0.037l-0-0-1.301-1.464v1.511h-0.255v-1.943h0.158c0.017 0 0.035 0.003 0.050 0.009zM43.035 16.975v0.213h-1.080v0.642h0.875v0.206h-0.875v0.663h1.080v0.214h-1.393v-1.938h1.393zM11.101 4.974l13.532 3.317v11.624l-13.532-3.315v-11.626zM10.233 3.983v13.182l15.266 3.743v-13.181l-15.266-3.745z"></path>
<path  d="M18.415 27.026l-15.268-3.746v-13.18l15.268 3.745v13.181z"></path>
<path  d="M10.487 4.825l13.355 3.276-5.68 4.905-13.357-3.277 5.681-4.903zM10.233 3.983l-7.086 6.117 15.268 3.746 7.084-6.118-15.266-3.745zM19.274 26.285l6.225-5.375-6.225-1.528v6.904z"></path>
</symbol>
<symbol id="icon-mail" viewBox="0 0 43 32">
<path  d="M38.667 0h-34.667c-2.205 0-4 1.795-4 4v24c0 2.205 1.795 4 4 4h34.667c2.205 0 4-1.795 4-4v-24c0-2.205-1.795-4-4-4zM38.667 2.667c0.181 0 0.355 0.037 0.512 0.104l-17.845 15.467-17.845-15.467c0.151-0.065 0.327-0.104 0.512-0.104h34.667zM38.667 29.333h-34.667c-0.736 0-1.333-0.597-1.333-1.333v0-22.413l17.792 15.421c0.233 0.203 0.539 0.327 0.875 0.327s0.642-0.124 0.876-0.328l-0.002 0.001 17.792-15.421v22.413c0 0.736-0.597 1.333-1.333 1.333v0z"></path>
</symbol>
<symbol id="icon-smartphone" viewBox="0 0 20 32">
<path  d="M17 0h-14c-1.654 0-3 1.346-3 3v26c0 1.654 1.346 3 3 3h14c1.654 0 3-1.346 3-3v-26c0-1.654-1.346-3-3-3zM3 2h14c0.552 0 1 0.448 1 1v0 21h-16v-21c0-0.552 0.448-1 1-1v0zM17 30h-14c-0.552 0-1-0.448-1-1v0-3h16v3c0 0.552-0.448 1-1 1v0z"></path>
<path  d="M4.708 27.478c0.18 0.163 0.293 0.399 0.293 0.66s-0.113 0.497-0.292 0.659l-0.001 0.001c-0.186 0.17-0.435 0.275-0.708 0.275s-0.522-0.104-0.709-0.275l0.001 0.001c-0.18-0.163-0.293-0.399-0.293-0.66s0.113-0.497 0.292-0.659l0.001-0.001c0.186-0.17 0.435-0.275 0.708-0.275s0.522 0.104 0.709 0.275l-0.001-0.001z"></path>
</symbol>
<symbol id="icon-close" viewBox="0 0 32 32">
<path d="M32 3.223l-3.223-3.223-12.777 12.777-12.777-12.777-3.223 3.223 12.777 12.777-12.777 12.777 3.223 3.223 12.777-12.777 12.777 12.777 3.223-3.223-12.777-12.777 12.777-12.777z"></path>
</symbol>
<symbol id="icon-icon-check" viewBox="0 0 34 32">
<path fill="#2196f3" style="fill: var(--color1, #2196f3)" d="M4.267 0h25.6c2.356 0 4.267 1.91 4.267 4.267v23.467c0 2.356-1.91 4.267-4.267 4.267h-25.6c-2.356 0-4.267-1.91-4.267-4.267v-23.467c0-2.356 1.91-4.267 4.267-4.267z"></path>
<path fill="#fff" style="fill: var(--color2, #fff); stroke: var(--color2, #fff)" stroke="#fff" stroke-linejoin="miter" stroke-linecap="butt" stroke-miterlimit="4" stroke-width="0.4267" d="M8.442 16.538l-0.147-0.141-0.147 0.139-2.057 1.95 0.162 0.156 7.605 7.253 0.147-0.141 16.171-15.426-0.162-0.154-2.029-1.935-0.147 0.141-13.98 13.325-5.417-5.167z"></path>
</symbol>
<symbol id="icon-modal-mail" viewBox="0 0 43 32">
<path d="M37.333 0h-32c-2.2 0-3.981 1.8-3.981 4l-0.019 24c0 2.2 1.8 4 4 4h32c2.2 0 4-1.8 4-4v-24c0-2.2-1.8-4-4-4zM36.533 8.501l-14.139 8.837c-0.302 0.188-0.668 0.3-1.060 0.3s-0.758-0.112-1.069-0.305l0.009 0.005-14.141-8.84c-0.503-0.301-0.835-0.843-0.835-1.463 0-0.938 0.761-1.699 1.699-1.699 0.349 0 0.673 0.105 0.943 0.285l-0.006-0.004 13.4 8.381 13.4-8.381c0.264-0.176 0.588-0.282 0.937-0.282 0.938 0 1.699 0.761 1.699 1.699 0 0.62-0.332 1.162-0.828 1.459l-0.008 0.004z"></path>
</symbol>
<symbol id="icon-modal-name" viewBox="0 0 32 32">
<path d="M16 16c4.418 0 8-3.582 8-8s-3.582-8-8-8v0c-4.418 0-8 3.582-8 8s3.582 8 8 8v0zM16 20c-5.339 0-16 2.68-16 8v2c0 1.099 0.901 2 2 2h28c1.099 0 2-0.901 2-2v-2c0-5.32-10.661-8-16-8z"></path>
</symbol>
<symbol id="icon-modal-tel" viewBox="0 0 32 32">
<path d="M27.419 20.853l-4.201-0.48c-0.116-0.014-0.25-0.023-0.385-0.023-0.909 0-1.732 0.369-2.328 0.964l-3.045 3.045c-4.718-2.435-8.467-6.185-10.835-10.764l-0.065-0.139 3.063-3.056c0.596-0.596 0.964-1.419 0.964-2.328 0-0.136-0.008-0.27-0.024-0.401l0.002 0.016-0.48-4.169c-0.199-1.655-1.595-2.926-3.287-2.926-0.001 0-0.003 0-0.004 0h-2.861c-1.87-0.005-3.424 1.55-3.31 3.417 0.878 14.126 12.176 25.408 26.286 26.286 1.867 0.114 3.424-1.44 3.424-3.31v-2.862c0-0.005 0-0.010 0-0.016 0-1.681-1.266-3.067-2.897-3.256l-0.015-0.001z"></path>
</symbol>
<symbol id="icon-telega-footer" viewBox="0 0 32 32">
<path fill="#fff" style="fill: var(--color1, #fff)" d="M32 0l-32 18 10.227 3.787 15.773-14.787-11.997 16.187 0.009 0.003-0.012-0.003v8.813l5.735-6.691 7.267 2.691 4.999-28z"></path>
</symbol>
<symbol id="icon-menu" viewBox="0 0 32 32">
<path d="M6.4 11.734v-2.134h19.2v2.134h-19.2zM6.4 17.066h19.2v-2.133h-19.2v2.133zM6.4 22.4h19.2v-2.134h-19.2v2.134z"></path>
</symbol>
<symbol id="icon-close_40px-1" viewBox="0 0 32 32">
<path d="M23.734 10.304l-1.504-1.504-5.963 5.962-5.962-5.962-1.504 1.504 5.962 5.962-5.962 5.963 1.504 1.504 5.962-5.963 5.963 5.963 1.504-1.504-5.963-5.963 5.963-5.962z"></path>
</symbol>

</defs>
</svg>
