<svg aria-hidden="true" style="position:absolute;width:0;height:0;overflow:hidden" xmlns="http://www.w3.org/2000/svg"><defs><symbol id="icon-facebook" viewBox="0 0 32 32"><path fill="#afb1b8" style="fill:var(--color1, #afb1b8)" d="M21.328 5.312h2.923V.224A36.483 36.483 0 0 0 20.143 0h-.156.008c-4.213 0-7.099 2.65-7.099 7.52V12H8.25v5.688h4.646V32h5.699V17.69h4.459l.707-5.688h-5.168V8.08c0-1.643.443-2.768 2.734-2.768z"/></symbol><symbol id="icon-instagram" viewBox="0 0 32 32"><path fill="#afb1b8" style="fill:var(--color1, #afb1b8)" d="M31.968 9.408c-.074-1.701-.349-2.869-.742-3.882a7.839 7.839 0 0 0-1.85-2.837l-.001-.001A7.906 7.906 0 0 0 26.597.861l-.054-.018C25.524.449 24.362.176 22.661.101 20.949.019 20.405 0 16.059 0c-4.344 0-4.888.019-6.595.094-1.699.074-2.869.349-3.88.742a7.847 7.847 0 0 0-2.839 1.85l-.001.001A7.9 7.9 0 0 0 .919 5.465l-.018.054C.506 6.538.232 7.7.157 9.401c-.082 1.712-.101 2.256-.101 6.602 0 4.344.019 4.888.094 6.595.075 1.701.35 2.869.744 3.882a7.915 7.915 0 0 0 1.849 2.837l.001.001c.8.813 1.77 1.443 2.832 1.843 1.019.395 2.182.67 3.882.744 1.707.075 2.251.094 6.595.094 4.346 0 4.89-.019 6.595-.094 1.701-.074 2.869-.349 3.882-.742a8.237 8.237 0 0 0 4.664-4.628l.019-.055c.394-1.019.669-2.182.744-3.882.075-1.707.093-2.251.093-6.595s-.006-4.888-.08-6.595zm-2.88 13.066c-.07 1.563-.333 2.406-.55 2.97a5.341 5.341 0 0 1-3.004 3.024l-.036.012c-.56.219-1.411.482-2.968.55-1.688.075-2.194.094-6.464.094-4.269 0-4.782-.019-6.464-.094-1.563-.069-2.406-.331-2.97-.55a4.953 4.953 0 0 1-1.836-1.192l-.001-.001a4.978 4.978 0 0 1-1.184-1.803L3.6 25.45c-.218-.563-.48-1.413-.549-2.97-.075-1.688-.094-2.195-.094-6.464 0-4.27.019-4.784.094-6.464.069-1.563.331-2.406.549-2.97a4.897 4.897 0 0 1 1.198-1.837l.002-.002a4.972 4.972 0 0 1 1.806-1.182l.034-.011c.56-.219 1.411-.48 2.968-.55 1.688-.074 2.195-.093 6.464-.093 4.275 0 4.782.019 6.464.093 1.563.069 2.406.331 2.97.55a4.91 4.91 0 0 1 1.837 1.194c.531.52.938 1.144 1.195 1.84.218.56.48 1.411.549 2.968.075 1.688.094 2.194.094 6.464 0 4.269-.019 4.768-.094 6.458z"/><path fill="#afb1b8" style="fill:var(--color1, #afb1b8)" d="M16.059 7.782a8.223 8.223 0 0 0-8.219 8.221 8.223 8.223 0 0 0 16.442.008v-.009a8.223 8.223 0 0 0-8.221-8.221zm0 13.552a5.333 5.333 0 0 1 .001-10.666h.001a5.334 5.334 0 1 1 0 10.668zM26.525 7.458a1.92 1.92 0 0 1-3.84 0 1.92 1.92 0 0 1 3.84 0z"/></symbol><symbol id="icon-linkedin" viewBox="0 0 32 32"><path fill="#afb1b8" style="fill:var(--color1, #afb1b8)" d="M31.992 32H32V20.262c0-5.741-1.237-10.163-7.947-10.163-3.227 0-5.392 1.77-6.277 3.45h-.093v-2.914h-6.365v21.363h6.627V21.42c0-2.786.528-5.48 3.978-5.48 3.398 0 3.448 3.179 3.448 5.658V32h6.621zM.528 10.635h6.635V32H.528V10.635zM3.843 0A3.843 3.843 0 0 0 0 3.843c0 2.12 1.722 3.878 3.843 3.878 2.12 0 3.842-1.757 3.842-3.878S5.965.002 3.844 0z"/></symbol><symbol id="icon-twitter" viewBox="0 0 32 32"><path fill="#afb1b8" style="fill:var(--color1, #afb1b8)" d="M32 6.078c-1.1.493-2.376.857-3.713 1.028l-.068.007a6.556 6.556 0 0 0 2.873-3.579l.013-.046a12.88 12.88 0 0 1-4.076 1.573l-.084.014A6.558 6.558 0 0 0 15.6 9.557v.004c0 .52.043 1.021.152 1.496-5.454-.266-10.28-2.88-13.522-6.861a6.524 6.524 0 0 0-.902 3.313v.001a6.57 6.57 0 0 0 2.914 5.451 6.453 6.453 0 0 1-2.994-.823l.033.017v.072a6.592 6.592 0 0 0 5.213 6.44l.043.008a6.403 6.403 0 0 1-1.662.215h-.061.003c-.419 0-.843-.024-1.242-.112.85 2.598 3.261 4.509 6.13 4.57a13.093 13.093 0 0 1-8.122 2.8H1.57h.001-.062c-.531 0-1.055-.034-1.569-.099l.061.006c2.826 1.846 6.287 2.944 10.004 2.944h.063-.003c12.072 0 18.672-10 18.672-18.669 0-.288-.01-.57-.024-.848a13.203 13.203 0 0 0 3.258-3.355l.03-.047z"/></symbol><symbol id="icon-antenna" viewBox="0 0 32 32"><path fill="#212121" style="fill:var(--color2, #212121)" d="m30.773 22.098-8.443-8.505.937-4.616c.225.09.485.144.758.146h.033a2.16 2.16 0 1 0-2.029-1.42l-.005-.015-4.96.606L8.973.161a.53.53 0 0 0-.376-.16.536.536 0 0 0-.373.155L6.712 1.66a.535.535 0 0 0 0 .754l.814.825C6.383 5.301 5.71 7.761 5.71 10.378c0 4.106 1.656 7.824 4.336 10.525l-.001-.001a.49.49 0 0 0 .146.097 2.986 2.986 0 0 0-.052.546v6.188h-6.4a2.669 2.669 0 0 0-2.667 2.666v1.067c0 .295.239.534.534.534H26.14a.534.534 0 0 0 .533-.534v-1.067a2.67 2.67 0 0 0-2.666-2.666h-6.4v-2.742a14.784 14.784 0 0 0 10.166-1.502l-.077.039.818.823a.534.534 0 0 0 .376.16.536.536 0 0 0 .373-.155l1.512-1.504a.535.535 0 0 0 0-.754zM23.28 6.233a1.067 1.067 0 1 1 .752 1.822h-.004a1.066 1.066 0 0 1-.747-1.822h-.002zm-1.256 3.504-.598 2.946-1.175-1.183 1.774-1.763zm-.605-.902-1.92 1.909-1.486-1.493 3.406-.416zM24.004 28.8a1.6 1.6 0 0 1 1.6 1.6v.534H2.138V30.4a1.6 1.6 0 0 1 1.6-1.6h20.267zm-7.466-2.134v1.067h-5.334v-1.067h5.334zM11.204 25.6v-4.053c0-1.294 1.196-2.346 2.667-2.346s2.667 1.053 2.667 2.346V25.6h-5.334zm6.4-1.696v-2.357c0-1.882-1.675-3.413-3.733-3.413h-.058c-1.353 0-2.54.707-3.213 1.771l-.009.016a13.817 13.817 0 0 1-3.812-9.55c0-2.314.567-4.496 1.569-6.414l-.036.077 18.602 18.709c-1.823.947-3.979 1.502-6.266 1.502-1.079 0-2.128-.124-3.136-.357l.093.018zm11.289-.684L7.836 2.039l.754-.752 7.935 7.98c.004 0 .006.007.01.01l13.114 13.191-.757.752z"/><path fill="#2196f3" style="fill:var(--color3, #2196f3)" d="M13.876 20.267h-.007a1.6 1.6 0 0 0-.003 3.2h.007a1.6 1.6 0 0 0 .002-3.2zm.373 1.978a.534.534 0 1 1-.378-.912.533.533 0 0 1 .374.911h.005z"/></symbol><symbol id="icon-astronaut" viewBox="0 0 32 32"><path fill="#2196f3" style="fill:var(--color3, #2196f3)" d="M31.974 4.524a.535.535 0 0 0-.427-.362h-.003l-1.911-.278-.855-1.731c-.179-.365-.777-.365-.956 0l-.855 1.731-1.911.278a.534.534 0 0 0-.296.91l1.383 1.348-.326 1.903a.532.532 0 0 0 .774.562l1.709-.899 1.709.899a.534.534 0 0 0 .773-.565v.003l-.326-1.903 1.383-1.348a.535.535 0 0 0 .134-.55l.001.004zm-2.463 1.327a.53.53 0 0 0-.153.472l.191 1.114-1-.526a.525.525 0 0 0-.501.001l.003-.001-1 .526.191-1.114a.53.53 0 0 0-.152-.472l-.811-.79 1.119-.162a.532.532 0 0 0 .402-.292l.5-1.013.5 1.013a.532.532 0 0 0 .402.292l1.119.162-.809.79zm-3.377 14.671h-1.067v1.067h1.067v-1.067zm0 2.134h-1.067v1.066h1.067v-1.066zm1.066-1.067h-1.067v1.067H27.2v-1.067zm-2.133 0H24v1.067h1.067v-1.067zm-2.667 4.8h-1.067v1.067H22.4v-1.067zm0 2.134h-1.067v1.067H22.4v-1.067zm1.067-1.067H22.4v1.067h1.067v-1.067zm-2.133 0h-1.067v1.067h1.067v-1.067zM16 24.256h-1.066v1.067H16v-1.067zm0 2.133h-1.066v1.067H16v-1.067zm1.067-1.067H16v1.067h1.067v-1.067zm-2.133 0h-1.067v1.067h1.067v-1.067zm-9.067-19.2H4.801v1.066h1.066V6.122zm0 2.134H4.801v1.066h1.066V8.256zm1.066-1.067H5.866v1.067h1.066V7.189zm-2.133 0H3.733v1.067H4.8V7.189z"/><path fill="#212121" style="fill:var(--color2, #212121)" d="M24.715 14.16a1.774 1.774 0 0 0-1.179-.703l-.009-.001a1.769 1.769 0 0 0-1.344.355l.004-.003-1.253.96-1.898 1.417-1.358-.541c2.421-1.086 4.113-3.508 4.113-6.32 0-3.823-3.122-6.934-6.961-6.934S7.869 5.5 7.869 9.324c0 1.386.415 2.674 1.12 3.759l-2.768-.024c-.009 0-.016.005-.023.005a.511.511 0 0 0-.159.033l.004-.001c-.013.005-.026.007-.038.013-.006.003-.013.003-.019.006l-3.233 1.596-.001.001-1.893.91a.5.5 0 0 0-.065.036l.001-.001a1.782 1.782 0 0 0-.594 2.306l-.005-.01c.22.424.592.742 1.043.885l.013.003a1.772 1.772 0 0 0 1.388-.133l-.009.005 1.388-.738 2.264-1.169 1.357-.008-5.442 5.415-.001.001-1.339 1.333a1.643 1.643 0 0 0-.491 1.173v.005a1.668 1.668 0 0 0 1.667 1.664h.002a1.67 1.67 0 0 0 1.18-.485l1.314-1.309 1.741-1.3.901.897L4.07 27.28a1.643 1.643 0 0 0-.491 1.173v.004a1.662 1.662 0 0 0 1.666 1.664h.003a1.67 1.67 0 0 0 1.18-.485l4.488-4.472c.007-.006.016-.009.022-.016l5.166-5.658 3.471.494a.474.474 0 0 0 .262-.032c.017-.006.032-.015.049-.023.019-.01.039-.015.058-.027l3.213-2.133c.012-.008.018-.021.029-.03.013-.01.029-.014.041-.026l1.271-1.191c.348-.326.564-.787.564-1.3 0-.4-.132-.769-.355-1.066l.003.005zM2.13 17.77a.706.706 0 0 1-.564.05l.005.001a.717.717 0 0 1-.215-1.258l.002-.001 1.314-.632.316.924.133.389-.992.527zm3.497-1.828-1.548.8-.255-.746-.184-.537 2.027-1.001-.04 1.484zm15.1-6.62c0 .918-.219 1.785-.599 2.56l-4.181-1.899a1.865 1.865 0 0 0-.782-1.384l-.006-.004 1.464-4.861c2.377.757 4.104 2.975 4.104 5.588zm-11.789 0c0-3.235 2.644-5.867 5.894-5.867.253 0 .5.022.745.053l-1.432 4.753c-.019 0-.037-.006-.057-.006h-.001a1.872 1.872 0 0 0-1.872 1.867 1.873 1.873 0 0 0 1.872 1.867h.001c.695 0 1.295-.383 1.618-.944l3.863 1.755a5.891 5.891 0 0 1-4.737 2.39c-3.25 0-5.894-2.632-5.894-5.867zm5.957.8c0 .441-.362.8-.806.8h-.001a.804.804 0 0 1-.804-.8c0-.441.361-.8.806-.8s.806.359.806.8zM2.464 25.146a.606.606 0 0 1-.855.001.591.591 0 0 1 0-.844l.962-.959.852.848-.959.954zm3.214 3.734a.606.606 0 0 1-.855.001.591.591 0 0 1 0-.844l.963-.959.852.848-.96.955zm3.482-3.469-.001.001-1.765 1.76-.852-.848 1.765-1.757a.527.527 0 0 0 .09-.136c.007-.014.02-.026.026-.04.016-.041.019-.085.026-.128.003-.025.014-.048.014-.073 0-.035-.013-.07-.02-.105-.006-.032-.006-.064-.019-.096a.536.536 0 0 0-.092-.138c-.01-.012-.014-.026-.025-.038h-.001l-.001-.002-1.607-1.6c-.017-.017-.039-.024-.058-.038a.491.491 0 0 0-.084-.056l-.003-.001a.527.527 0 0 0-.09-.031l-.003-.001a.502.502 0 0 0-.101-.02h-.025a.603.603 0 0 0-.075.005h.003c-.036.005-.069.009-.104.021s-.064.027-.094.045c-.02.011-.043.015-.061.029l-1.774 1.324-.901-.897 2.399-2.386 4.36 4.289-.928.919zm6.819-7.017c-.016-.002-.03.004-.046.003l-.027-.001a.562.562 0 0 0-.092.008h.003a.484.484 0 0 0-.187.07l.002-.001a.492.492 0 0 0-.083.061c-.013.011-.028.016-.04.029l-4.698 5.146-4.328-4.256 2.833-2.818a.535.535 0 0 0-.378-.911h-.002l-2.219.013.028-1.607 3.104.027a6.928 6.928 0 0 0 4.978 2.101h.003c.438 0 .864-.046 1.28-.122.04.032.08.064.129.085l2.41.96.152.758.178.886-3.003-.427zm4.041.178-.313-1.558 1.446-1.08.946 1.257-2.08 1.381zm3.753-2.831-.837.785-.931-1.236.831-.637a.735.735 0 0 1 .543-.143.718.718 0 0 1 .621.71.71.71 0 0 1-.226.521z"/><path fill="#212121" style="fill:var(--color2, #212121)" d="m13.602 18.544-2.143-2.134a.53.53 0 0 0-.752 0l-2.143 2.133a.535.535 0 0 0 0 .756l2.142 2.134a.53.53 0 0 0 .752 0l2.143-2.134a.532.532 0 0 0 0-.756zm-2.519 1.759-1.387-1.381 1.386-1.381 1.387 1.381-1.387 1.381zm6.081-15.232-.258 1.036c.071.018 1.738.452 1.738 2.149h1.067c0-2.017-1.666-2.965-2.547-3.184zm2.547 4.251h-1.067v1.066h1.067V9.322z"/></symbol><symbol id="icon-clock" viewBox="0 0 32 32"><path fill="#212121" style="fill:var(--color2, #212121)" d="M31.296 15.301C31.295 6.849 24.441-.002 15.988 0S.685 6.855.687 15.308c.002 6.788 4.422 12.543 10.541 14.545l.108.031a.667.667 0 0 0 .529-.065.636.636 0 0 0 .283-.357l3.865-12.25a1.913 1.913 0 1 0-.852-3.63l.011-.005-5.106-5.107a.638.638 0 0 0-.902.902l5.103 5.109a1.847 1.847 0 0 0-.191.826c0 .602.283 1.137.723 1.48l.004.003-3.682 11.673C3.843 25.782.117 17.709 2.797 10.431S13.551-.573 20.829 2.108c7.278 2.681 11.004 10.754 8.323 18.032-1.345 3.581-4.003 6.406-7.374 7.938l-.088.036-.398-1.874a.639.639 0 0 0-1.05-.343l.001-.001-3.837 3.426a.637.637 0 0 0 .227 1.083l.005.001 4.899 1.563a.637.637 0 0 0 .818-.744l.001.004-.391-1.839c5.528-2.374 9.329-7.772 9.329-14.057v-.034.002zm-15.304-.637a.638.638 0 0 1 0 1.276.638.638 0 0 1 0-1.276zm2.1 14.864 2.184-1.948.603 2.84-2.787-.892z"/><path fill="#2196f3" style="fill:var(--color3, #2196f3)" d="M15.354 3.185V4.46a.638.638 0 0 0 1.276 0V3.185a.638.638 0 1 0-1.276 0zM3.876 14.664a.638.638 0 0 0 0 1.276h1.275a.638.638 0 0 0 0-1.276H3.876zm24.232 1.275a.638.638 0 0 0 0-1.276h-1.275a.638.638 0 0 0 0 1.276h1.275z"/></symbol><symbol id="icon-diagram" viewBox="0 0 32 32"><path fill="#2196f3" style="fill:var(--color3, #2196f3)" d="M14.926 14.965h1.066v4.798h-1.066v-4.798zm4.264 2.132h1.066v2.665H19.19v-2.665zm-8.529 1.599h1.066v1.066h-1.066v-1.066zm-3.198-.533h1.066v1.599H7.463v-1.599z"/><path fill="#212121" style="fill:var(--color2, #212121)" d="M1.599 28.291h25.586a1.6 1.6 0 0 0 1.599-1.599V24.56a1.6 1.6 0 0 0-1.599-1.599h-.533V9.667l3.028-2.868a1.608 1.608 0 1 0-.742-.752l-.004-.01-2.281 2.162v-1.23a1.6 1.6 0 0 0-1.599-1.599H3.731a1.6 1.6 0 0 0-1.599 1.599v15.992h-.533A1.6 1.6 0 0 0 0 24.56v2.132a1.6 1.6 0 0 0 1.599 1.599zM30.384 4.837a.533.533 0 0 1 0 1.066.533.533 0 0 1 0-1.066zM3.198 6.969c0-.294.239-.533.533-.533h21.323c.294 0 .533.239.533.533v2.239l-1.066 1.013V8.036a.534.534 0 0 0-.534-.534H4.798a.534.534 0 0 0-.534.533v13.327c0 .294.239.533.534.533h19.189a.534.534 0 0 0 .534-.533v-9.675l1.066-1.01V22.96H3.198V6.969zm4.798 6.93h-.005a1.6 1.6 0 1 0 1.112 2.748l1.853.93a.535.535 0 0 0 .636-.122l3.939-4.432 3.872 2.902a.534.534 0 0 0 .686-.039l3.365-3.188v8.131H5.331V8.568h18.123v2.661l-3.771 3.572-3.904-2.927a.534.534 0 0 0-.718.071v.001l-3.993 4.493-1.493-.746c.011-.064.017-.128.02-.193a1.6 1.6 0 0 0-1.599-1.599zm.533 1.599a.533.533 0 0 1-1.066 0 .533.533 0 0 1 1.066 0zm3.198 8.528h5.33v.533a.533.533 0 0 1-.533.533h-4.265a.533.533 0 0 1-.533-.533v-.533zm-10.66.534c0-.294.238-.533.533-.533h9.062v.533a1.6 1.6 0 0 0 1.599 1.599h4.265a1.6 1.6 0 0 0 1.599-1.599v-.533h9.062c.294 0 .533.239.533.533v2.132a.533.533 0 0 1-.533.533H1.601a.533.533 0 0 1-.533-.533V24.56z"/></symbol><symbol id="icon-logo1" viewBox="0 0 56 32"><path fill="#afb1b8" style="fill:var(--color1, #afb1b8)" d="m19.934 4.105 3.676 3.48-6.824-.004v16.886h17.836v-6.456l3.672 3.476V4.105H19.933zm14.527 13.497L24.037 7.734h10.424v9.868zm-3.236 4.395H19.609V10.641h.821v10.587h10.795v.769zm-8.872 4.718-.429.884-.429-.884h-.36l.626 1.178v.687h.325v-.687l.625-1.178h-.358zm.539 1.865.151-.434h.722l.152.434h.338l-.706-1.865h-.291l-.704 1.865h.337zm.512-1.469.27.773h-.54l.27-.773zm1.709.728a.422.422 0 0 0-.07.234v.003c0 .157.055.285.165.383s.259.146.443.146c.185 0 .344-.05.477-.15l.105.124h.361l-.274-.324c.108-.147.161-.335.161-.565h-.27c0 .126-.026.24-.078.342l-.36-.425.127-.092a.712.712 0 0 0 .194-.195.409.409 0 0 0 .059-.212v-.01a.381.381 0 0 0-.13-.288.467.467 0 0 0-.315-.121h-.019.001c-.15 0-.27.043-.358.129a.452.452 0 0 0-.133.346c0 .06.014.122.042.186.029.064.08.142.152.233a1.089 1.089 0 0 0-.277.257zm.841.413a.47.47 0 0 1-.294.105h-.015a.309.309 0 0 1-.208-.081.277.277 0 0 1-.084-.199v-.011.001c0-.1.051-.189.154-.267l.04-.028.407.481zm-.334-.826c-.088-.109-.132-.198-.132-.27 0-.062.018-.114.054-.155a.184.184 0 0 1 .137-.062h.015c.051 0 .098.02.133.053a.164.164 0 0 1 .055.124v.007a.232.232 0 0 1-.079.174l-.04.031-.142.098zm3.035 1.013a.678.678 0 0 0 .22-.466h-.323c-.017.133-.058.228-.122.285s-.16.086-.287.086c-.139 0-.245-.053-.317-.159s-.108-.26-.108-.461v-.165c.002-.199.04-.349.115-.452a.38.38 0 0 1 .325-.155c.121 0 .213.03.275.089s.102.156.118.29h.323c-.021-.205-.093-.362-.219-.474s-.291-.168-.497-.168a.754.754 0 0 0-.404.109.714.714 0 0 0-.266.305l-.002.004a1.08 1.08 0 0 0-.094.443v.023-.001.174c.003.172.035.322.096.452s.149.23.261.301c.114.07.245.105.393.105.212 0 .383-.055.511-.166zm1.904-.262c.063-.138.095-.299.095-.482v-.124c0-.166-.036-.323-.1-.465l.003.007a.712.712 0 0 0-.27-.313l-.003-.002c-.117-.073-.252-.11-.404-.11s-.286.037-.404.111a.722.722 0 0 0-.273.319 1.121 1.121 0 0 0-.096.459v.024-.001.105c.001.178.033.336.097.472a.74.74 0 0 0 .274.317c.119.073.253.11.404.11a.75.75 0 0 0 .405-.11.725.725 0 0 0 .271-.318zm-.346-1.054c.079.11.117.269.117.475v.097c0 .21-.039.37-.116.479a.378.378 0 0 1-.331.164h-.013a.386.386 0 0 1-.318-.167l-.001-.001c-.08-.112-.119-.27-.119-.475v-.108c.002-.2.042-.356.12-.465a.382.382 0 0 1 .315-.166h.014-.001c.144 0 .254.055.332.165z"/></symbol><symbol id="icon-logo2" viewBox="0 0 53 32"><path fill="#afb1b8" style="fill:var(--color1, #afb1b8)" d="M25.057 3.38h-.069a8.285 8.285 0 0 0-.315-.011h-.227c-.198 0-.401.005-.602.015l-.023-.001-.024.001h.001a14.084 14.084 0 0 0-5.343 1.378l.084-.037-.216.104V15.9l.506-.172c.444-.152.917-.29 1.407-.417a16.73 16.73 0 0 1 4.036-.537h.012v1.455c-.191.001-.377.007-.562.016l.03-.001h-.042a16.223 16.223 0 0 0-3.227.503l.113-.025a15.773 15.773 0 0 0-3.791 1.487l.081-.041V3.97a14.563 14.563 0 0 1 3.79-1.561l.103-.022a14.507 14.507 0 0 1 3.665-.473h.217c.256.006.505.018.739.036.616.044 1.228.141 1.828.291v1.432c-.51-.125-1.115-.22-1.734-.265l-.037-.002-.037-.003c-.123-.01-.247-.021-.362-.021zm2.519 1.463c.317.024.646.036.979.036a15.736 15.736 0 0 0 3.966-.52l-.11.025a15.808 15.808 0 0 0 3.79-1.488l-.082.041v13.945a14.598 14.598 0 0 1-3.79 1.561l-.103.023a14.605 14.605 0 0 1-3.665.472h-.091c-.957 0-1.885-.12-2.772-.346l.078.017V4.575c.215.05.436.095.662.133.369.063.759.108 1.139.136zm7.097.109-.506.17c-.306.112-.775.256-1.251.385l-.156.036a16.7 16.7 0 0 1-4.2.539h-.003c-.33 0-.634-.009-.927-.028l-.404-.027v11.389l.346.03c.321.029.652.043.986.043a13.438 13.438 0 0 0 3.404-.45l-.094.021c.992-.252 1.853-.57 2.67-.966l-.083.036.216-.104V4.952zM17.869 23.019a.743.743 0 0 0-.537-.228h-.028.001-.011a.825.825 0 0 0-.319.063l.006-.002a.736.736 0 0 0-.414.416l-.002.005a.821.821 0 0 0-.058.314v1.897a.88.88 0 0 0 .075.389c.045.098.11.184.19.255.076.064.165.11.26.135.093.026.188.039.284.039a.801.801 0 0 0 .786-.798v-.212h-.497V25.473a.442.442 0 0 1-.03.16l.001-.003a.297.297 0 0 1-.072.107.353.353 0 0 1-.207.073.253.253 0 0 1-.232-.101v-.001a.442.442 0 0 1-.066-.235v-.02.001-1.769a.609.609 0 0 1 .061-.284.254.254 0 0 1 .244-.114h-.001.01c.087 0 .163.042.211.106v.001a.403.403 0 0 1 .082.244v.011-.001.164h.491v-.202a.885.885 0 0 0-.063-.33l.002.006a.774.774 0 0 0-.166-.267zm2.945-.022a.855.855 0 0 0-.86-.156.783.783 0 0 0-.452.416l-.002.005a.891.891 0 0 0-.073.367v1.82a.865.865 0 0 0 .073.372.74.74 0 0 0 .192.255c.076.07.165.125.262.16a.853.853 0 0 0 .861-.16l-.001.001a.798.798 0 0 0 .26-.627v-1.836a.885.885 0 0 0-.075-.357l.002.006a.82.82 0 0 0-.187-.266zm-.231 2.453.001.028a.324.324 0 0 1-.1.235.36.36 0 0 1-.467 0h.001a.321.321 0 0 1-.1-.234l.001-.03v.001-1.82l-.001-.028c0-.092.038-.175.1-.235a.36.36 0 0 1 .467 0h-.001c.062.059.1.143.1.235l-.001.03v-.001 1.82zm4.1.813v-3.445h-.477l-.627 1.823h-.009l-.631-1.823h-.471v3.445h.492v-2.096h.009l.482 1.481h.245l.485-1.481h.009v2.095h.492zm2.796-3.203a.696.696 0 0 0-.278-.189 1.057 1.057 0 0 0-.336-.053h-.022.001-.731v3.444h.491v-1.345h.253a.895.895 0 0 0 .443-.094.72.72 0 0 0 .268-.26l.002-.003a.826.826 0 0 0 .112-.295l.001-.005c.019-.13.028-.26.026-.392a1.985 1.985 0 0 0-.048-.492.745.745 0 0 0-.181-.317zm-.253 1.05a.427.427 0 0 1-.047.182l.001-.002a.279.279 0 0 1-.125.12l-.002.001a.497.497 0 0 1-.206.044l-.026-.001h.001-.224v-1.171h.253l.024-.001c.072 0 .14.016.201.045l-.003-.001c.051.03.09.073.114.126l.001.002c.027.06.041.125.043.192v.229c0 .08.005.163 0 .236h-.005zm2.578-1.291h-.402l-.759 3.445h.491l.144-.74h.669l.144.74h.491l-.777-3.445zm-.453 2.234.241-1.248h.009l.24 1.248h-.491zm3.624-.16h-.009l-.741-2.075h-.472v3.445h.49v-2.072h.01l.75 2.071h.462v-3.444h-.49v2.075zm2.999-2.074-.395 1.369h-.01l-.395-1.369h-.519l.674 1.988v1.456h.491v-1.456l.674-1.988h-.52zM16.5 27.235h.236v.664h.16v-.663h.235V27.1h-.632v.136zm1.988-.136-.31.799h.171l.066-.182h.319l.068.182h.175l-.318-.8h-.171zm-.025.483.108-.296.108.297h-.218zm1.991.022h.185v.103a.301.301 0 0 1-.19.067h-.012a.203.203 0 0 1-.158-.076.333.333 0 0 1-.059-.191l.001-.019v.001c0-.178.077-.267.23-.267l.017-.001c.079 0 .145.054.163.127v.001l.158-.03c-.034-.157-.146-.235-.339-.235h-.011a.402.402 0 0 0-.269.103.388.388 0 0 0-.115.309v-.001.019c0 .108.039.206.103.282l-.001-.001a.386.386 0 0 0 .279.118l.026-.001h-.001.013a.483.483 0 0 0 .327-.128v-.315h-.346v.135zm2.008-.505H22.3v.799h.56v-.136h-.398v-.664zm1.697 0h-.162v.799h.162v-.8zm1.659.535-.328-.535h-.157v.8h.15v-.523l.322.523h.161v-.8h-.148v.535zm1.501-.087h.398v-.137h-.398v-.175h.428v-.136h-.59v.799h.607v-.136h-.445v-.216zm3.637-.132h-.315v-.316h-.16v.799h.16v-.35h.315v.35h.161v-.8h-.161v.316zm1.509.132h.4v-.137h-.4v-.175h.43v-.136h-.59v.799h.606v-.136h-.445v-.216zm2.046 0c.139-.022.21-.096.21-.223l.001-.022a.19.19 0 0 0-.079-.155h-.001a.45.45 0 0 0-.203-.048l-.033.001h.001-.339v.799h.161v-.334h.045c.031 0 .061.007.088.019l-.001-.001a.186.186 0 0 1 .057.058l.175.254h.192l-.097-.156a.574.574 0 0 0-.175-.191l-.002-.001zm-.162-.111h-.118v-.201h.127l.034-.001a.41.41 0 0 1 .132.021l-.003-.001a.102.102 0 0 1 .035.078.106.106 0 0 1-.013.05v-.001a.114.114 0 0 1-.03.035.436.436 0 0 1-.133.02l-.032-.001h.001zm1.706.111h.398v-.137h-.398v-.175h.43v-.136h-.592v.799h.607v-.136h-.445v-.216z"/></symbol><symbol id="icon-logo3" viewBox="0 0 56 32"><path fill="#afb1b8" style="fill:var(--color1, #afb1b8)" d="M19.098 26.192c.008 0 .017.002.024.005s.015.007.02.013l.114.109a.95.95 0 0 1-.322.208 1.242 1.242 0 0 1-.427.075h-.031.002a1.196 1.196 0 0 1-.429-.07.95.95 0 0 1-.324-.197l.001.001a.867.867 0 0 1-.206-.297l-.002-.006a.983.983 0 0 1-.073-.378v-.012.001-.02c0-.267.116-.507.3-.673l.001-.001c.097-.084.211-.152.336-.196l.007-.002c.141-.047.291-.071.442-.069.14-.003.28.018.41.063.113.043.217.102.308.176l-.096.117a.12.12 0 0 1-.024.021.07.07 0 0 1-.033.009h-.006a.094.094 0 0 1-.042-.012l-.051-.031-.072-.039a.794.794 0 0 0-.221-.069l-.005-.001a.971.971 0 0 0-.158-.013h-.013.001-.01a.91.91 0 0 0-.314.055l.006-.002a.724.724 0 0 0-.249.147.686.686 0 0 0-.162.233.77.77 0 0 0-.058.297v.011-.001.013c0 .108.021.212.06.306l-.002-.005a.673.673 0 0 0 .397.376c.093.034.193.05.294.05.058.001.117-.003.175-.01a.691.691 0 0 0 .379-.161l-.001.001a.091.091 0 0 1 .054-.02zm3.304-.55a.945.945 0 0 1-.077.387.847.847 0 0 1-.214.299l-.001.001a1.02 1.02 0 0 1-.331.195l-.007.002a1.368 1.368 0 0 1-.88-.003l.01.003a1.01 1.01 0 0 1-.337-.198l.001.001a.872.872 0 0 1-.215-.298l-.002-.006c-.049-.114-.077-.247-.077-.387s.028-.273.08-.393l-.003.007a.898.898 0 0 1 .218-.304.984.984 0 0 1 .336-.19 1.367 1.367 0 0 1 .88.003l-.01-.003c.127.045.242.112.337.197a.896.896 0 0 1 .293.689zm-.3 0v-.016a.809.809 0 0 0-.057-.3l.002.006a.642.642 0 0 0-.39-.378l-.005-.001a.992.992 0 0 0-.639.002l.007-.002a.667.667 0 0 0-.242.147.612.612 0 0 0-.153.228l-.001.004a.9.9 0 0 0 .002.628l-.002-.006c.07.179.213.317.392.376l.004.001c.204.067.428.067.632 0a.676.676 0 0 0 .241-.145.647.647 0 0 0 .153-.232.83.83 0 0 0 .055-.311zm2.554.325.03.07a.888.888 0 0 1 .033-.069.666.666 0 0 1 .039-.071l-.002.003.731-1.155c.015-.02.027-.033.042-.036s.032-.007.05-.007h.226v1.878h-.256v-1.439l-.001-.033.001-.034v.002l-.736 1.171a.106.106 0 0 1-.042.042h-.001a.127.127 0 0 1-.062.016H24.664a.127.127 0 0 1-.062-.016h.001a.1.1 0 0 1-.042-.042v-.001l-.757-1.178v1.507h-.247v-1.873h.226c.018 0 .035.002.052.007h-.001c.018.008.031.02.04.036l.747 1.156a.366.366 0 0 1 .037.067zm2.751-.093v.703h-.285v-1.874h.638c.121-.002.24.012.356.041a.727.727 0 0 1 .252.117c.061.048.109.11.141.181l.001.003c.034.077.05.158.049.24v.012c0 .169-.081.32-.206.415l-.001.001a.729.729 0 0 1-.253.124 1.176 1.176 0 0 1-.322.044h-.023l-.345-.005zm0-.201h.346a.83.83 0 0 0 .222-.028.48.48 0 0 0 .161-.082l-.001.001a.361.361 0 0 0 .131-.278v-.005l.001-.02a.313.313 0 0 0-.03-.134l.001.002a.37.37 0 0 0-.099-.128h-.001a.611.611 0 0 0-.387-.1h.002-.346v.773zm3.844.907h-.23a.1.1 0 0 1-.059-.018.11.11 0 0 1-.037-.043v-.001l-.194-.453h-.977l-.201.453a.107.107 0 0 1-.096.061h-.23l.858-1.878h.297l.87 1.878zm-1.416-.697h.807l-.34-.764a1.447 1.447 0 0 1-.065-.177l-.033.098a.846.846 0 0 1-.031.08l-.337.763zm2.652-1.172c.017.008.031.02.042.034l1.252 1.415v-1.458h.256v1.878h-.146a.13.13 0 0 1-.056-.012h.001a.16.16 0 0 1-.046-.035l-1.25-1.414.001.032-.001.034v-.002 1.395h-.256V24.7h.155c.017 0 .034.003.05.009h-.001zm3.659 1.122v.745h-.286v-.745l-.791-1.131h.262a.11.11 0 0 1 .056.016.175.175 0 0 1 .039.043l.495.73a1.073 1.073 0 0 1 .087.166l.037-.081a.603.603 0 0 1 .049-.085l.488-.734a.277.277 0 0 1 .036-.04.091.091 0 0 1 .056-.018h.264l-.792 1.136zm-11.631-4.282c.124.014.25.025.378.035 1.93-.75 3.563-1.978 4.694-3.529s1.711-3.359 1.667-5.196l-2.127-1.848c.432 1.955.23 3.976-.584 5.838s-2.209 3.489-4.027 4.7z"/><path fill="#afb1b8" style="fill:var(--color1, #afb1b8)" d="m23.756 21.465.057.011c1.943-1.208 3.424-2.894 4.252-4.841s.965-4.065.393-6.08l-3.029-2.632c1.225 2.163 1.719 4.585 1.422 6.982-.296 2.397-1.369 4.672-3.095 6.56zm10.273-6.434c-.515 2.018-1.765 3.837-3.564 5.189a11.18 11.18 0 0 1-1.63 1.026l-.063.03c1.466-.374 2.812-1.036 3.937-1.934s1.997-2.008 2.55-3.246L34.03 15.03z"/><path fill="#afb1b8" style="fill:var(--color1, #afb1b8)" d="m33.547 14.734-1.749-1.52c-.034 1.733-.601 3.426-1.642 4.904s-2.52 2.687-4.281 3.501h.008a11.5 11.5 0 0 0 1.224-.065l-.05.004c1.646-.584 3.1-1.512 4.232-2.703s1.908-2.606 2.257-4.121zm-9.539-7.921-2.087-1.816c-1.865.626-3.47 1.727-4.603 3.159s-1.743 3.128-1.748 4.865c.007 1.92.751 3.783 2.114 5.295 1.362 1.511 3.267 2.585 5.411 3.05 1.914-2.026 3.035-4.529 3.199-7.146s-.636-5.212-2.285-7.407zm14.361 7.641c-.007-2.278-1.052-4.461-2.906-6.072s-4.367-2.519-6.989-2.525h-.021c-1.26 0-2.471.21-3.6.596l.078-.023 12.776 11.1c.416-.904.66-1.962.661-3.076z"/></symbol><symbol id="icon-logo4" viewBox="0 0 56 32"><path fill="#2196f3" style="fill:var(--color3, #2196f3)" d="M12.667 11.504h-.002c-1.258 0-2.278.906-2.278 2.024v.001c0 1.118 1.02 2.024 2.278 2.024h.002c1.258 0 2.278-.906 2.278-2.024v-.001c0-1.118-1.02-2.025-2.278-2.025zm16.812-.648c-.004-1.553-.699-3.041-1.935-4.139s-2.91-1.716-4.657-1.72c-1.748.003-3.423.621-4.659 1.719s-1.932 2.587-1.936 4.14v8.563s13.185-1.305 13.187-8.561v-.002zM5.771 22.23c.003 1.081.488 2.116 1.347 2.88s2.024 1.195 3.24 1.198c1.215-.003 2.38-.434 3.24-1.198s1.344-1.799 1.347-2.879v-5.958s-9.174.909-9.174 5.957zm4.586 1.068a1.31 1.31 0 0 1-.667-.18 1.112 1.112 0 0 1-.439-.473l-.003-.007a.937.937 0 0 1-.067-.623l-.001.006c.046-.207.161-.397.328-.546s.382-.251.615-.292a1.325 1.325 0 0 1 .703.063l-.009-.003c.22.081.407.218.539.393s.203.382.203.593v.003a.951.951 0 0 1-.093.413l.002-.006a1.07 1.07 0 0 1-.259.346l-.001.001c-.111.1-.244.178-.39.233a1.295 1.295 0 0 1-.458.081h-.002v-.004zm9.272-.589h-.886v.914h-.461v-2.238h1.457v.373h-.996v.578h.886v.372zm2.216-.153c0 .22-.039.413-.116.579s-.19.294-.336.385a.913.913 0 0 1-.481.136h-.017.001a.934.934 0 0 1-.497-.134.896.896 0 0 1-.336-.376l-.002-.005a1.292 1.292 0 0 1-.121-.552v-.021.001-.11c0-.22.039-.414.118-.581a.886.886 0 0 1 .835-.521c.187 0 .351.045.496.135a.873.873 0 0 1 .337.386c.08.167.12.36.12.579v.1zm-.467-.102c0-.235-.042-.413-.126-.535a.412.412 0 0 0-.342-.183h-.019.001-.017a.413.413 0 0 0-.34.18l-.001.001c-.084.12-.126.296-.127.529v.109c0 .228.042.405.126.532s.205.189.363.189h.018a.408.408 0 0 0 .338-.18l.001-.001c.083-.122.125-.299.126-.532v-.109zm1.962.582v-.013a.234.234 0 0 0-.092-.186h-.001a1.142 1.142 0 0 0-.332-.147 2.403 2.403 0 0 1-.393-.16l.013.006c-.254-.137-.381-.323-.381-.555 0-.121.034-.228.101-.323a.682.682 0 0 1 .294-.223c.128-.053.272-.08.43-.08.16 0 .302.029.428.088a.672.672 0 0 1 .29.244c.07.105.105.226.105.359h-.462c0-.102-.031-.182-.097-.238a.393.393 0 0 0-.272-.086c-.113 0-.2.024-.263.072a.224.224 0 0 0-.094.182v.005c0 .073.037.134.109.183.093.057.201.104.315.136l.009.002c.262.079.453.177.573.294s.18.262.18.436c0 .194-.073.346-.22.456s-.343.165-.591.165c-.172 0-.329-.031-.471-.094a.754.754 0 0 1-.323-.257l-.002-.002a.659.659 0 0 1-.11-.367v-.015.001h.462c0 .247.147.37.443.37.11 0 .195-.022.257-.066a.219.219 0 0 0 .092-.179v-.009zm2.461-1.277h-.685v1.864h-.462v-1.864h-.675v-.373h1.822v.373zm1.61.895h-.885v.6h1.039v.37h-1.5v-2.238h1.497v.373h-1.036v.534h.886v.361zm1.253.15h-.367v.819h-.461v-2.238h.831c.264 0 .468.059.612.177s.215.284.215.499a.684.684 0 0 1-.1.383.68.68 0 0 1-.295.241l-.004.002.484.914v.021h-.495l-.42-.819zm-.367-.373h.372a.382.382 0 0 0 .269-.088.316.316 0 0 0 .095-.227v-.018.001c0-.106-.03-.189-.09-.249s-.151-.091-.275-.091h-.37v.671zm2.794.404v.788h-.461v-2.238h.873c.168 0 .316.031.443.092a.67.67 0 0 1 .295.263.733.733 0 0 1 .103.386.645.645 0 0 1-.226.519c-.15.126-.357.189-.623.189h-.404zm0-.373h.412c.122 0 .215-.029.278-.086.065-.058.097-.14.097-.246v-.017a.371.371 0 0 0-.097-.25.365.365 0 0 0-.268-.104h-.423v.703zm2.917.192h-.885v.6h1.039v.37h-1.5v-2.238h1.497v.373h-1.036v.534h.886v.361zm2.139-.895h-.686v1.864H35v-1.864h-.676v-.373h1.823v.373zm1.611.895h-.884v.6h1.039v.37h-1.5v-2.238h1.497v.373h-1.036v.534h.885v.361zm1.253.15h-.367v.819h-.462v-2.238h.832c.264 0 .468.059.612.177s.215.284.215.499a.692.692 0 0 1-.1.383.67.67 0 0 1-.296.241l-.004.002.484.914v.021h-.495l-.42-.819zm-.368-.373h.372a.382.382 0 0 0 .269-.088.32.32 0 0 0 .096-.228v-.017.001a.333.333 0 0 0-.091-.249c-.059-.06-.151-.091-.275-.091h-.37v.671zm2.71.606v-.013a.234.234 0 0 0-.092-.186h-.001a1.142 1.142 0 0 0-.332-.147 2.403 2.403 0 0 1-.393-.16l.013.006c-.254-.137-.381-.323-.381-.555 0-.121.034-.228.101-.323a.682.682 0 0 1 .294-.223c.128-.053.272-.08.43-.08.16 0 .302.029.428.088a.672.672 0 0 1 .29.244c.07.105.105.226.105.359h-.462c0-.102-.031-.182-.097-.238a.393.393 0 0 0-.272-.086c-.113 0-.2.024-.263.072a.224.224 0 0 0-.094.183v.005c0 .073.037.134.11.183s.182.095.324.138c.262.079.453.177.573.294s.18.262.18.436c0 .194-.073.346-.22.456s-.344.165-.591.165c-.172 0-.329-.031-.471-.094a.754.754 0 0 1-.323-.257l-.002-.002a.659.659 0 0 1-.11-.367v-.015.001h.462c0 .247.147.37.443.37.11 0 .195-.022.257-.066a.22.22 0 0 0 .093-.179v-.009z"/></symbol><symbol id="icon-logo5" viewBox="0 0 56 32"><path fill="#afb1b8" style="fill:var(--color1, #afb1b8)" d="M14.036 23.901a.755.755 0 0 1 .194.552.743.743 0 0 1-.072.32l.002-.005a.822.822 0 0 1-.228.291l-.002.001a1.364 1.364 0 0 1-.87.237h.004-1.523v-3.248h1.492a1.355 1.355 0 0 1 .832.218l-.005-.003a.758.758 0 0 1 .223.273c.05.106.073.22.067.336a.712.712 0 0 1-.173.496.824.824 0 0 1-.454.254.88.88 0 0 1 .514.278zm-1.786-.49h.638a.65.65 0 0 0 .405-.108.398.398 0 0 0 .108-.142l.001-.002a.347.347 0 0 0 .03-.142l-.001-.032v.001l.001-.027a.37.37 0 0 0-.031-.148l.001.002a.394.394 0 0 0-.106-.144h-.001a.652.652 0 0 0-.42-.11h.002-.628v.852zm1.106 1.245a.4.4 0 0 0 .116-.146l.001-.003a.376.376 0 0 0 .034-.156l-.001-.027v.001l.001-.024a.38.38 0 0 0-.036-.162l.001.002a.416.416 0 0 0-.119-.149l-.001-.001a.7.7 0 0 0-.391-.119l-.044.001h.002-.669v.893h.678a.713.713 0 0 0 .428-.113zm3.73.641-.829-1.27h-.312v1.27h-.714v-3.248h1.352a1.425 1.425 0 0 1 .944.279l-.004-.003c.189.176.303.409.322.655s-.06.491-.221.689a1.12 1.12 0 0 1-.639.329l-.006.001.884 1.298h-.776zm-1.142-1.712h.584c.405 0 .609-.164.609-.492l.001-.026a.431.431 0 0 0-.035-.173l.001.003a.49.49 0 0 0-.116-.168.668.668 0 0 0-.462-.132h.003-.591l.007.988zm5.045 1.059h-1.423l-.251.654h-.749l1.306-3.212h.81l1.301 3.212h-.748l-.246-.654zm-.191-.492-.52-1.371-.52 1.371h1.04zm5.076 1.145h-.708l-1.59-2.209v2.209h-.707v-3.248h.707l1.59 2.221v-2.221h.708v3.248zm4.045-.778a1.48 1.48 0 0 1-.642.573c-.275.13-.598.205-.939.205l-.061-.001h.003-1.261v-3.248h1.262l.059-.001c.34 0 .662.074.952.206l-.014-.006c.271.126.495.323.641.567.146.264.222.556.222.852s-.076.588-.222.852zm-.811-.077c.202-.216.313-.491.313-.775a1.126 1.126 0 0 0-.314-.775 1.298 1.298 0 0 0-.892-.276h.004-.492v2.103h.492a1.302 1.302 0 0 0 .891-.278l-.003.002zM21.433 3.983s9.148 3.162 8.954 7.738v7.74s-9.142-3.163-8.951-7.74l-.003-7.738zm17.103 13.666a13.261 13.261 0 0 1 5.812-1.961v-2.423c-2.404.848-4.443 2.386-5.812 4.384z"/><path fill="#afb1b8" style="fill:var(--color1, #afb1b8)" d="M37.499 18.38c1.414-2.607 3.865-4.619 6.85-5.622V5.777s-13.028 4.505-12.753 11.021v11.02s.581-.201 1.494-.579c0-.352 0-.708.042-1.065.269-3.025 1.84-5.828 4.367-7.793z"/><path fill="#afb1b8" style="fill:var(--color1, #afb1b8)" d="M36.26 22.473c.076-.833.237-1.6.476-2.331l-.021.074c-1.573 1.697-2.526 3.803-2.724 6.022-.019.209-.03.419-.035.635 1.087-.475 1.91-.88 2.716-1.312l-.21.103a10.47 10.47 0 0 1-.203-3.191zm.518.04a9.99 9.99 0 0 0 .173 2.954l-.011-.065c3.559-1.95 7.559-4.964 7.405-8.605v-.317c-2.543.261-4.922 1.278-6.772 2.897a9.882 9.882 0 0 0-.791 3.096l-.003.039z"/></symbol><symbol id="icon-logo6" viewBox="0 0 56 32"><path fill="#afb1b8" style="fill:var(--color1, #afb1b8)" d="M28.026 14.811a1.536 1.536 0 0 1-.318-1.048v.005-1.512c0-.464.105-.816.316-1.057.21-.241.571-.361 1.083-.36.481 0 .823.103 1.025.308.22.262.328.582.303.904v.356h-.86v-.36a1.818 1.818 0 0 0-.025-.353.34.34 0 0 0-.123-.209l-.001-.001a.49.49 0 0 0-.275-.083l-.039.001h.002l-.037-.001a.527.527 0 0 0-.293.089l.002-.001a.404.404 0 0 0-.142.228v.003a1.696 1.696 0 0 0-.034.345v.031-.002 1.836a.942.942 0 0 0 .11.515.416.416 0 0 0 .169.124l.003.001a.464.464 0 0 0 .224.029h-.002l.036.001a.47.47 0 0 0 .269-.085l-.001.001a.37.37 0 0 0 .128-.221v-.002c.02-.122.029-.245.027-.368v-.372h.861v.34a1.38 1.38 0 0 1-.299.954l.002-.003c-.198.225-.535.337-1.03.337s-.87-.12-1.082-.369zm3.584.016c-.218-.236-.326-.579-.326-1.032v-1.591c0-.45.109-.79.326-1.02s.581-.346 1.091-.345c.506 0 .868.115 1.085.345.217.231.328.571.328 1.02v1.591c0 .45-.11.794-.332 1.031s-.581.355-1.082.355-.871-.12-1.091-.354zm1.492-.382a.886.886 0 0 0 .103-.471v-1.948a.838.838 0 0 0-.103-.466l.002.005a.409.409 0 0 0-.173-.126l-.003-.001a.458.458 0 0 0-.23-.027h.002a.475.475 0 0 0-.231.028l.003-.001a.419.419 0 0 0-.176.126l-.001.001a.837.837 0 0 0-.103.462v1.957a.876.876 0 0 0 .103.471.54.54 0 0 0 .181.116.608.608 0 0 0 .446-.001l-.004.001a.53.53 0 0 0 .181-.116v-.009zm2.048-3.56h.926l.697 2.935.713-2.935h.901l.091 4.237h-.667l-.071-2.945-.688 2.945h-.535l-.712-2.955-.066 2.955h-.674l.084-4.237zm4.367 0h1.444c.831 0 1.247.401 1.247 1.203 0 .768-.438 1.152-1.314 1.151h-.492v1.883h-.891l.005-4.237zm1.234 1.811a.7.7 0 0 0 .262-.02.652.652 0 0 0 .228-.114.692.692 0 0 0 .129-.478l.001-.047c0-.12-.016-.237-.046-.347l.002.009a.32.32 0 0 0-.066-.117.362.362 0 0 0-.11-.084l-.002-.001a.904.904 0 0 0-.351-.069l-.049.001h.002-.346v1.266h.346zm2.743-1.811h.957l.982 4.237h-.831l-.194-.977h-.853l-.199.977h-.843l.981-4.237zm.818 2.77-.334-1.778-.333 1.778h.666zm1.913-2.77h.624l1.193 2.417v-2.417h.74v4.237h-.593l-1.201-2.523v2.523h-.764l.002-4.237zm4.29 2.622-.993-2.616h.836l.606 1.68.568-1.68h.818l-.98 2.616v1.616h-.855v-1.616zm-21.113 3.468v.221h-.727v1.722h-.305v-1.722h-.731v-.221h1.763zm2.28 1.943h-.242a.104.104 0 0 1-.06-.019.11.11 0 0 1-.039-.044v-.001l-.21-.462h-1.009l-.21.462a.13.13 0 0 1-.032.052.104.104 0 0 1-.06.018h-.241l.891-1.943h.309l.902 1.936zm-1.476-.722h.841l-.357-.791a1.235 1.235 0 0 1-.063-.173l-.002-.01-.034.103-.033.081-.353.79zm3.012.531a.977.977 0 0 0 .31-.023 1.114 1.114 0 0 0 .248-.083v-.437h-.36a.078.078 0 0 1-.022-.003h.001a.078.078 0 0 1-.022-.012.05.05 0 0 1-.014-.015.034.034 0 0 1-.004-.018v-.151h.691v.745a1.292 1.292 0 0 1-.366.156l-.009.002a1.824 1.824 0 0 1-.478.052h-.016c-.157 0-.307-.027-.448-.075l.01.003a1.114 1.114 0 0 1-.358-.204l.002.001a.946.946 0 0 1-.227-.302l-.002-.006a.951.951 0 0 1-.082-.39v-.013.001-.012c0-.142.03-.278.083-.401l-.003.006a.899.899 0 0 1 .23-.308c.102-.088.223-.156.357-.201a1.713 1.713 0 0 1 .725-.055c.072.011.144.027.212.049.063.02.122.046.178.077.055.03.106.064.155.101l-.086.121a.077.077 0 0 1-.028.026.108.108 0 0 1-.041.011.121.121 0 0 1-.056-.016h.001a.986.986 0 0 1-.093-.049l.005.003a.752.752 0 0 0-.114-.051l-.006-.002a1.147 1.147 0 0 0-.157-.042l-.007-.001a1.29 1.29 0 0 0-.214-.017H33.2h.001-.011c-.119 0-.234.02-.341.056l.007-.002a.686.686 0 0 0-.426.391l-.002.005a.9.9 0 0 0 .002.654l-.002-.006c.039.092.1.175.178.245a.763.763 0 0 0 .26.154.974.974 0 0 0 .353.038zm2.84-.031h.973v.221h-1.27v-1.943h.304l-.007 1.722zm1.985.222h-.304v-1.943h.304v1.943zm1.134-1.934a.165.165 0 0 1 .047.035l1.303 1.465-.001-.035.001-.036v.002-1.448h.265v1.951h-.163a.139.139 0 0 1-.057-.012h.001a.176.176 0 0 1-.048-.037l-1.301-1.464v1.511h-.255v-1.943h.158c.017 0 .035.003.05.009zm3.858-.009v.213h-1.08v.642h.875v.206h-.875v.663h1.08v.214h-1.393v-1.938h1.393zM11.101 4.974l13.532 3.317v11.624L11.101 16.6V4.974zm-.868-.991v13.182l15.266 3.743V7.727L10.233 3.982z"/><path fill="#afb1b8" style="fill:var(--color1, #afb1b8)" d="M18.415 27.026 3.147 23.28V10.1l15.268 3.745v13.181z"/><path fill="#afb1b8" style="fill:var(--color1, #afb1b8)" d="m10.487 4.825 13.355 3.276-5.68 4.905L4.805 9.729l5.681-4.903zm-.254-.842L3.147 10.1l15.268 3.746 7.084-6.118-15.266-3.745zm9.041 22.302 6.225-5.375-6.225-1.528v6.904z"/></symbol><symbol id="icon-mail" viewBox="0 0 43 32"><path fill="#2196f3" style="fill:var(--color3, #2196f3)" d="M38.667 0H4C1.795 0 0 1.795 0 4v24c0 2.205 1.795 4 4 4h34.667c2.205 0 4-1.795 4-4V4c0-2.205-1.795-4-4-4zm0 2.667c.181 0 .355.037.512.104L21.334 18.238 3.489 2.771c.151-.065.327-.104.512-.104h34.667zm0 26.666H4A1.333 1.333 0 0 1 2.667 28V5.587l17.792 15.421c.233.203.539.327.875.327s.642-.124.876-.328l-.002.001L40 5.587V28c0 .736-.597 1.333-1.333 1.333z"/></symbol><symbol id="icon-smartphone" viewBox="0 0 20 32"><path fill="#757575" style="fill:var(--color4, #757575)" d="M17 0H3C1.346 0 0 1.346 0 3v26c0 1.654 1.346 3 3 3h14c1.654 0 3-1.346 3-3V3c0-1.654-1.346-3-3-3zM3 2h14a1 1 0 0 1 1 1v21H2V3a1 1 0 0 1 1-1zm14 28H3a1 1 0 0 1-1-1v-3h16v3a1 1 0 0 1-1 1z"/><path fill="#757575" style="fill:var(--color4, #757575)" d="M4.708 27.478a.889.889 0 0 1 .001 1.319l-.001.001a1.048 1.048 0 0 1-1.417 0l.001.001a.889.889 0 0 1-.001-1.319l.001-.001a1.048 1.048 0 0 1 1.417 0l-.001-.001z"/></symbol></defs></svg>